<svg width="24" height="25" viewBox="0 0 24 25" fill="none" xmlns="http://www.w3.org/2000/svg">
<g clip-path="url(#clip0_1647_9239)">
<path d="M16.7729 0.345507C16.7219 0.288507 14.8844 0.368007 13.2854 2.10351C11.6864 3.83751 11.9324 5.82651 11.9684 5.87751C12.0044 5.92851 14.2484 6.00801 15.6809 3.99051C17.1134 1.97301 16.8239 0.404007 16.7729 0.345507ZM21.7439 17.945C21.6719 17.801 18.2564 16.094 18.5744 12.812C18.8924 9.52851 21.0869 8.62851 21.1214 8.53101C21.1559 8.43351 20.2259 7.34601 19.2404 6.79551C18.5168 6.40739 17.716 6.18502 16.8959 6.14451C16.7339 6.14001 16.1714 6.00201 15.0149 6.31851C14.2529 6.52701 12.5354 7.20201 12.0629 7.22901C11.5889 7.25601 10.1789 6.44601 8.66239 6.23151C7.69189 6.04401 6.66289 6.42801 5.92639 6.72351C5.19139 7.01751 3.79339 7.85451 2.81539 10.079C1.83739 12.302 2.34889 15.824 2.71489 16.919C3.08089 18.0125 3.65239 19.805 4.62439 21.113C5.48839 22.589 6.63439 23.6135 7.11289 23.9615C7.59139 24.3095 8.94139 24.5405 9.87739 24.062C10.6304 23.6 11.9894 23.3345 12.5264 23.354C13.0619 23.3735 14.1179 23.585 15.1994 24.1625C16.0559 24.458 16.8659 24.335 17.6774 24.005C18.4889 23.6735 19.6634 22.4165 21.0344 19.868C21.5549 18.683 21.7919 18.0425 21.7439 17.945Z" fill="black"/>
<path d="M16.7729 0.345507C16.7219 0.288507 14.8844 0.368007 13.2854 2.10351C11.6864 3.83751 11.9324 5.82651 11.9684 5.87751C12.0044 5.92851 14.2484 6.00801 15.6809 3.99051C17.1134 1.97301 16.8239 0.404007 16.7729 0.345507ZM21.7439 17.945C21.6719 17.801 18.2564 16.094 18.5744 12.812C18.8924 9.52851 21.0869 8.62851 21.1214 8.53101C21.1559 8.43351 20.2259 7.34601 19.2404 6.79551C18.5168 6.40739 17.716 6.18502 16.8959 6.14451C16.7339 6.14001 16.1714 6.00201 15.0149 6.31851C14.2529 6.52701 12.5354 7.20201 12.0629 7.22901C11.5889 7.25601 10.1789 6.44601 8.66239 6.23151C7.69189 6.04401 6.66289 6.42801 5.92639 6.72351C5.19139 7.01751 3.79339 7.85451 2.81539 10.079C1.83739 12.302 2.34889 15.824 2.71489 16.919C3.08089 18.0125 3.65239 19.805 4.62439 21.113C5.48839 22.589 6.63439 23.6135 7.11289 23.9615C7.59139 24.3095 8.94139 24.5405 9.87739 24.062C10.6304 23.6 11.9894 23.3345 12.5264 23.354C13.0619 23.3735 14.1179 23.585 15.1994 24.1625C16.0559 24.458 16.8659 24.335 17.6774 24.005C18.4889 23.6735 19.6634 22.4165 21.0344 19.868C21.5549 18.683 21.7919 18.0425 21.7439 17.945Z" fill="black"/>
</g>
<defs>
<clipPath id="clip0_1647_9239">
<rect width="24" height="24" fill="white" transform="translate(0 0.333496)"/>
</clipPath>
</defs>
</svg>
