<svg width="33" height="32" viewBox="0 0 33 32" fill="none" xmlns="http://www.w3.org/2000/svg">
<circle cx="16.5" cy="15.5" r="15.5" fill="white"/>
<path d="M31.9987 15.5955C31.9987 6.9816 25.0596 0 16.4994 0C7.93912 0 1 6.9816 1 15.5955C1 23.3777 6.66807 29.829 14.0774 30.9987V20.1026H10.1428V15.5942H14.0774V12.1593C14.0774 8.25003 16.3921 6.09135 19.9315 6.09135C21.6275 6.09135 23.401 6.39546 23.401 6.39546V10.2333H21.4479C19.5233 10.2333 18.9226 11.4354 18.9226 12.6688V15.5955H23.2215L22.5343 20.1039H18.9226V31C26.3319 29.8303 32 23.379 32 15.5955H31.9987Z" fill="#0078D7"/>
</svg>
