<svg width="24" height="25" viewBox="0 0 24 25" fill="none" xmlns="http://www.w3.org/2000/svg">
<g clip-path="url(#clip0_1647_4604)">
<path d="M23.5078 12.5582C23.5078 11.5749 23.4295 10.8574 23.2598 10.1133H12.2295V14.5513H18.7041C18.5736 15.6542 17.8687 17.3151 16.3022 18.4312L16.2802 18.5798L19.7678 21.33L20.0095 21.3545C22.2285 19.2684 23.5078 16.1989 23.5078 12.5582Z" fill="#4285F4"/>
<path d="M12.2296 24.2508C15.4016 24.2508 18.0645 23.1878 20.0095 21.3542L16.3023 18.4308C15.3102 19.1351 13.9787 19.6267 12.2296 19.6267C9.1228 19.6267 6.48598 17.5406 5.54603 14.6572L5.40825 14.6691L1.7818 17.526L1.73438 17.6602C3.6663 21.5667 7.63462 24.2508 12.2296 24.2508Z" fill="#34A853"/>
<path d="M5.54621 14.6573C5.2982 13.9132 5.15466 13.1159 5.15466 12.2921C5.15466 11.4682 5.2982 10.671 5.53316 9.92691L5.52659 9.76844L1.8547 6.86572L1.73457 6.92389C0.938328 8.54499 0.481445 10.3654 0.481445 12.2921C0.481445 14.2188 0.938328 16.0391 1.73457 17.6602L5.54621 14.6573Z" fill="#FBBC05"/>
<path d="M12.2295 4.95753C14.4356 4.95753 15.9237 5.92751 16.7722 6.73811L20.0878 3.44278C18.0515 1.51609 15.4015 0.333496 12.2295 0.333496C7.63462 0.333496 3.6663 3.01756 1.73438 6.92406L5.53297 9.92708C6.48597 7.04369 9.12279 4.95753 12.2295 4.95753Z" fill="#EB4335"/>
</g>
<defs>
<clipPath id="clip0_1647_4604">
<rect width="23.04" height="24" fill="white" transform="translate(0.480469 0.333496)"/>
</clipPath>
</defs>
</svg>
