<svg width="33" height="32" viewBox="0 0 33 32" fill="none" xmlns="http://www.w3.org/2000/svg">
<circle cx="16.5" cy="15.5" r="15.5" fill="#D62976"/>
<path d="M17 7C14.555 7 14.2498 7.01125 13.2898 7.054C12.3313 7.099 11.6787 7.24975 11.105 7.4725C10.5132 7.702 10.0108 8.01025 9.5105 8.5105C9.01025 9.01075 8.70125 9.5125 8.4725 10.105C8.24975 10.6787 8.09825 11.3313 8.054 12.2898C8.009 13.2498 8 13.555 8 16C8 18.445 8.01125 18.7503 8.054 19.7103C8.099 20.668 8.24975 21.3213 8.4725 21.895C8.69847 22.4956 9.0527 23.0398 9.5105 23.4895C9.95996 23.9476 10.5042 24.3019 11.105 24.5275C11.6795 24.7495 12.332 24.9018 13.2898 24.946C14.2498 24.991 14.555 25 17 25C19.445 25 19.7503 24.9888 20.7103 24.946C21.668 24.901 22.3213 24.7495 22.895 24.5275C23.4955 24.3013 24.0396 23.9471 24.4895 23.4895C24.9478 23.0402 25.3021 22.4959 25.5275 21.895C25.7495 21.3213 25.9018 20.668 25.946 19.7103C25.991 18.7503 26 18.445 26 16C26 13.555 25.9888 13.2498 25.946 12.2898C25.901 11.332 25.7495 10.678 25.5275 10.105C25.3014 9.50441 24.9472 8.9603 24.4895 8.5105C24.0404 8.05198 23.4961 7.69764 22.895 7.4725C22.3213 7.24975 21.668 7.09825 20.7103 7.054C19.7503 7.009 19.445 7 17 7ZM17 8.62C19.4023 8.62 19.6888 8.632 20.6375 8.67325C21.515 8.7145 21.9913 8.86 22.3077 8.9845C22.7292 9.14725 23.0278 9.34225 23.3442 9.6565C23.6585 9.9715 23.8535 10.2707 24.0163 10.6922C24.1392 11.0087 24.2862 11.485 24.326 12.3625C24.3687 13.312 24.3785 13.597 24.3785 16C24.3785 18.403 24.3673 18.6888 24.323 19.6375C24.2773 20.515 24.131 20.9913 24.0072 21.3077C23.8608 21.6983 23.6307 22.0521 23.333 22.3442C23.0421 22.6422 22.6886 22.8718 22.298 23.0163C21.983 23.1392 21.4993 23.2862 20.6217 23.326C19.6663 23.3687 19.385 23.3785 16.9775 23.3785C14.5693 23.3785 14.288 23.3673 13.3333 23.323C12.455 23.2773 11.9713 23.131 11.6562 23.0072C11.2654 22.8626 10.912 22.6322 10.622 22.333C10.3209 22.0441 10.09 21.69 9.947 21.298C9.82325 20.983 9.67775 20.4993 9.632 19.6217C9.59825 18.6768 9.58625 18.385 9.58625 15.9887C9.58625 13.5917 9.59825 13.2993 9.632 12.343C9.67775 11.4655 9.82325 10.9825 9.947 10.6675C10.1045 10.24 10.3063 9.9475 10.622 9.63175C10.9362 9.3175 11.2295 9.115 11.6562 8.95825C11.9713 8.83375 12.4445 8.6875 13.322 8.6425C14.2783 8.60875 14.5595 8.5975 16.9662 8.5975L17 8.62ZM17 11.3785C16.3931 11.3785 15.7921 11.498 15.2314 11.7303C14.6707 11.9625 14.1613 12.303 13.7321 12.7321C13.303 13.1613 12.9625 13.6707 12.7303 14.2314C12.498 14.7921 12.3785 15.3931 12.3785 16C12.3785 16.6069 12.498 17.2079 12.7303 17.7686C12.9625 18.3293 13.303 18.8387 13.7321 19.2679C14.1613 19.697 14.6707 20.0375 15.2314 20.2697C15.7921 20.502 16.3931 20.6215 17 20.6215C18.2257 20.6215 19.4012 20.1346 20.2679 19.2679C21.1346 18.4012 21.6215 17.2257 21.6215 16C21.6215 14.7743 21.1346 13.5988 20.2679 12.7321C19.4012 11.8654 18.2257 11.3785 17 11.3785ZM17 19C15.3425 19 14 17.6575 14 16C14 14.3425 15.3425 13 17 13C18.6575 13 20 14.3425 20 16C20 17.6575 18.6575 19 17 19ZM22.8845 11.1962C22.8741 11.4757 22.7557 11.7403 22.5543 11.9343C22.3529 12.1283 22.0842 12.2367 21.8045 12.2367C21.5248 12.2367 21.2561 12.1283 21.0547 11.9343C20.8533 11.7403 20.7349 11.4757 20.7245 11.1962C20.7245 10.9098 20.8383 10.6351 21.0408 10.4326C21.2434 10.23 21.5181 10.1163 21.8045 10.1163C22.0909 10.1163 22.3656 10.23 22.5682 10.4326C22.7707 10.6351 22.8845 10.9098 22.8845 11.1962Z" fill="#FAFAFA"/>
</svg>
