<svg width="125" height="48" viewBox="0 0 125 48" fill="none" xmlns="http://www.w3.org/2000/svg">
<path d="M58.932 40.2934C58.932 40.5491 58.8427 40.7583 58.6617 40.9212C58.4809 41.084 58.2787 41.1654 58.0512 41.1654C57.7925 41.1654 57.5807 41.0761 57.4173 40.8979C57.2521 40.7197 57.1704 40.5183 57.1704 40.2934C57.1704 40.0452 57.254 39.838 57.4231 39.6713C57.5904 39.5045 57.8004 39.4213 58.0512 39.4213C58.3099 39.4213 58.5217 39.5084 58.6854 39.683C58.8503 39.8573 58.932 40.0608 58.932 40.2934V40.2934ZM65.3488 41.1768H63.832C63.8166 41.1768 63.7815 41.1732 63.7271 41.1654C63.6726 41.1576 63.626 41.1497 63.587 41.1422C63.4472 41.1187 63.311 41.0954 63.1791 41.0725C63.0466 41.049 62.9028 41.0064 62.747 40.9443C62.226 40.7508 61.7827 40.5005 61.4169 40.1944C61.0515 39.8884 60.7519 39.553 60.5189 39.1885C60.2853 38.8243 60.1162 38.4446 60.0112 38.0493C59.9062 37.654 59.8536 37.2662 59.8536 36.8866C59.8536 36.8091 59.8614 36.6712 59.8773 36.4738C59.8926 36.2763 59.9198 36.0884 59.9589 35.9099C60.013 35.6928 60.0969 35.4564 60.2094 35.2007C60.3223 34.9447 60.4645 34.695 60.6352 34.4508C60.8067 34.2065 61.0049 33.9737 61.2305 33.753C61.4559 33.532 61.7086 33.3402 61.9888 33.1774C62.3855 32.9449 62.7664 32.7938 63.1319 32.7238C63.1476 32.7238 63.1846 32.7163 63.243 32.7007C63.3013 32.6853 63.3676 32.6678 63.4415 32.6484C63.5153 32.6291 63.589 32.6135 63.6629 32.602C63.7368 32.5902 63.7972 32.5848 63.8439 32.5848H65.3488V34.3286H63.9253C63.9101 34.3286 63.8632 34.3383 63.7857 34.3576C63.7077 34.3769 63.6457 34.3904 63.5988 34.3985C63.4587 34.4137 63.3053 34.4625 63.138 34.5436C62.9707 34.625 62.8054 34.7276 62.642 34.8518C62.4786 34.9758 62.3292 35.1153 62.1931 35.2703C62.057 35.4253 61.9538 35.5843 61.8838 35.7471C61.8681 35.786 61.8469 35.8306 61.8194 35.8807C61.7924 35.9313 61.771 35.9796 61.7556 36.026C61.6932 36.2042 61.6545 36.3538 61.6387 36.4738C61.6233 36.5938 61.6158 36.7276 61.6158 36.8751C61.6158 37.0841 61.6424 37.3033 61.6971 37.5319C61.7516 37.7605 61.8412 37.9794 61.9655 38.1889C62.0902 38.3982 62.2511 38.5938 62.4496 38.7757C62.6481 38.9581 62.8911 39.1113 63.1791 39.2352C63.21 39.2506 63.2602 39.2699 63.3307 39.2935C63.4006 39.3164 63.4723 39.3381 63.5461 39.3574C63.6206 39.3767 63.6922 39.3941 63.7621 39.4095C63.832 39.4253 63.8904 39.4328 63.937 39.4328H65.3488V41.1768V41.1768ZM74.5538 36.898C74.5538 37.4951 74.441 38.0532 74.2156 38.5725C73.9902 39.0917 73.6828 39.5434 73.294 39.9272C72.9052 40.3109 72.4501 40.6148 71.9291 40.8397C71.4078 41.0644 70.8478 41.1768 70.2489 41.1768C69.6498 41.1768 69.0901 41.0644 68.5687 40.8397C68.0474 40.6148 67.5909 40.3087 67.1982 39.9213C66.8051 39.5338 66.4962 39.0803 66.2704 38.561C66.0448 38.0415 65.9322 37.4836 65.9322 36.8866C65.9322 36.2974 66.0448 35.7413 66.2704 35.2178C66.4962 34.695 66.8051 34.2376 67.1982 33.8462C67.5909 33.4545 68.0474 33.1466 68.5687 32.9216C69.0901 32.697 69.6498 32.5848 70.2489 32.5848C70.8555 32.5848 71.4195 32.6988 71.9406 32.9274C72.4616 33.1563 72.9167 33.4663 73.3055 33.8577C73.6946 34.249 73.9999 34.7064 74.2217 35.2296C74.4431 35.7528 74.5538 36.3091 74.5538 36.898V36.898ZM72.8038 36.898C72.8038 36.6734 72.7729 36.4409 72.7106 36.2005C72.6483 35.9603 72.5475 35.7317 72.4074 35.5146C72.2674 35.2975 72.0883 35.0982 71.8704 34.9158C71.6526 34.7336 71.3884 34.5844 71.0771 34.4682C71.0151 34.4447 70.9412 34.4276 70.8555 34.4158C70.7699 34.4044 70.6958 34.3904 70.6338 34.3751C70.5639 34.3594 70.4822 34.348 70.3891 34.3404C70.2955 34.3322 70.241 34.3286 70.2256 34.3286C70.0468 34.3286 69.8601 34.3519 69.6656 34.3985C69.4713 34.4447 69.2768 34.5183 69.0822 34.6193C68.888 34.72 68.7028 34.8479 68.5279 35.0032C68.353 35.1578 68.1993 35.3439 68.0671 35.561C67.904 35.8324 67.7987 36.0998 67.7522 36.3631C67.7367 36.4488 67.7228 36.5338 67.7113 36.6191C67.6998 36.7044 67.6938 36.7973 67.6938 36.898C67.6938 37.2394 67.7597 37.5629 67.8922 37.869C68.0244 38.1753 68.2072 38.4446 68.4405 38.6771C68.674 38.9096 68.9458 39.0939 69.2571 39.2295C69.5684 39.3652 69.8989 39.4328 70.2489 39.4328C70.5911 39.4328 70.9179 39.367 71.229 39.2352C71.54 39.1035 71.8123 38.9231 72.0456 38.6946C72.2788 38.4657 72.4638 38.1986 72.5996 37.8925C72.7361 37.5862 72.8038 37.2544 72.8038 36.898V36.898ZM83.876 41.1768H82.1141V35.7006L79.6873 39.2235L77.2492 35.7006V41.1768H75.4873V32.5963H77.2373L79.6758 36.1191L82.1375 32.5963H83.876V41.1768V41.1768Z" fill="#F1C72F"/>
<path d="M15.3394 16.8327H9.71858V30.6138H6.16768V16.8561H0.5V13.317H15.3394V16.8327V16.8327ZM20.772 30.6138H17.2211V13.317H20.772V30.6138ZM33.7299 30.6138H30.6727C30.6416 30.6138 30.5707 30.606 30.4612 30.5903C30.3514 30.5746 30.2573 30.5593 30.1789 30.5435C29.8966 30.4965 29.6225 30.4498 29.3559 30.4027C29.0893 30.356 28.7992 30.2701 28.4857 30.145C27.4352 29.7544 26.5414 29.2505 25.8047 28.6334C25.068 28.016 24.464 27.3403 23.9938 26.6061C23.5233 25.8716 23.1823 25.1059 22.9708 24.309C22.759 23.5123 22.6535 22.731 22.6535 21.9654C22.6535 21.8092 22.6692 21.5318 22.7006 21.1335C22.7319 20.7348 22.7866 20.3561 22.8652 19.9967C22.9747 19.5591 23.1433 19.0828 23.3706 18.5668C23.5978 18.0515 23.8843 17.5477 24.2289 17.0555C24.5741 16.5631 24.9735 16.0945 25.4283 15.6491C25.883 15.2037 26.3926 14.8169 26.9571 14.4891C27.7568 14.0203 28.5247 13.7157 29.2618 13.5748C29.2933 13.5748 29.3677 13.5592 29.4852 13.5281C29.6028 13.4967 29.7359 13.4617 29.8851 13.4223C30.034 13.3834 30.1832 13.3524 30.3317 13.3288C30.4806 13.3053 30.6022 13.2936 30.6963 13.2936H33.7299V16.8091H30.8609C30.8295 16.8091 30.7353 16.8287 30.5786 16.8676C30.4219 16.9068 30.2966 16.9343 30.2025 16.95C29.9203 16.981 29.6107 17.0787 29.2737 17.2427C28.9366 17.4071 28.6031 17.614 28.2742 17.8639C27.945 18.1139 27.6431 18.3952 27.3687 18.7076C27.0942 19.0201 26.8867 19.3402 26.7454 19.6686C26.7142 19.7467 26.671 19.8362 26.6161 19.9382C26.5611 20.0395 26.5181 20.1372 26.4867 20.231C26.3611 20.5904 26.2828 20.8911 26.2515 21.1335C26.2201 21.3756 26.2047 21.6449 26.2047 21.9419C26.2047 22.3637 26.2591 22.8052 26.3689 23.2663C26.4789 23.727 26.6591 24.1688 26.91 24.5903C27.1608 25.0122 27.4863 25.4069 27.886 25.7739C28.286 26.1412 28.7756 26.4499 29.3559 26.6996C29.4186 26.7309 29.5205 26.7701 29.6615 26.8172C29.8028 26.8636 29.9474 26.9067 30.0966 26.9459C30.2457 26.9848 30.3907 27.0201 30.5317 27.0514C30.6727 27.0825 30.7904 27.0982 30.8845 27.0982H33.7299V30.6138V30.6138Z" fill="#F1C72F"/>
<path d="M52.5204 30.6139H48.9694V19.575L44.0775 26.6764L39.1626 19.575V30.6139H35.6113V13.3172H39.139L44.0539 20.4186L49.0163 13.3172H52.5204V30.6139V30.6139ZM70.2761 30.6374H66.349L65.0788 27.9655H59.1055L57.8353 30.6374H53.9316L62.1155 13.2936L70.2761 30.6374V30.6374ZM63.4326 24.4263L62.1155 21.6139L60.7751 24.4263H63.4326ZM75.2381 30.6139H71.6872V13.3172H75.2381V30.6139V30.6139ZM89.0903 16.8327L86.0798 18.3326C85.9388 18.0359 85.7584 17.7856 85.5388 17.5827C85.3194 17.3794 85.0843 17.2115 84.8332 17.0788C84.5824 16.9458 84.324 16.8523 84.0574 16.7975C83.7908 16.7429 83.5478 16.7155 83.3285 16.7155C83.0928 16.7155 82.8538 16.735 82.6111 16.7743C82.3679 16.8132 82.1482 16.8876 81.9528 16.9965C81.7564 17.1062 81.5961 17.2663 81.4705 17.4771C81.3449 17.6882 81.2822 17.9575 81.2822 18.2858C81.2822 18.5201 81.3606 18.7819 81.5171 19.0711C82.3065 20.5245 86.8876 21.1975 88.0789 23.7352C88.2513 24.1022 88.373 24.477 88.4435 24.8596C88.5136 25.2426 88.5493 25.6216 88.5493 25.9964C88.5493 26.4496 88.4943 26.8833 88.3845 27.2973C88.2746 27.7116 88.0946 28.0982 87.8438 28.4576C87.5929 28.817 87.2598 29.1529 86.844 29.4654C86.4286 29.778 85.9155 30.0512 85.3037 30.2858C85.1627 30.3326 84.9981 30.3792 84.8099 30.426C84.6216 30.4731 84.4259 30.5083 84.222 30.5315C84.018 30.5551 83.8105 30.5746 83.5987 30.5904C83.3869 30.606 83.203 30.6139 83.0462 30.6139H82.9049C82.8109 30.6139 82.705 30.61 82.5879 30.6021C82.4698 30.5943 82.3521 30.5864 82.235 30.5786C82.1174 30.5708 82.0193 30.5593 81.9406 30.5436C81.58 30.4966 81.1921 30.4106 80.7764 30.2858C80.3613 30.1607 79.9497 29.9849 79.5419 29.7584C79.1344 29.5319 78.7461 29.2506 78.3779 28.9144C78.0094 28.5785 77.692 28.1762 77.4254 27.7076C77.3782 27.6296 77.3274 27.5397 77.2726 27.438C77.2176 27.3365 77.167 27.2388 77.1195 27.145L80.0593 25.6687H80.1298C80.271 25.9654 80.4514 26.2153 80.671 26.4186C80.8901 26.6215 81.1255 26.7855 81.3763 26.9107C81.6272 27.0358 81.8823 27.1258 82.1407 27.1802C82.399 27.2349 82.6386 27.2623 82.8577 27.2623C83.1088 27.2623 83.3557 27.2426 83.5987 27.2035C83.8417 27.1646 84.0613 27.0901 84.2574 26.9809C84.4531 26.8715 84.6141 26.7156 84.7394 26.5124C84.865 26.3094 84.9273 26.0434 84.9273 25.7154C84.9273 25.0436 84.465 24.4733 83.5397 24.0045C83.4928 23.9888 83.3912 23.9382 83.2342 23.8522C83.0774 23.7663 82.9049 23.6726 82.7167 23.5709C80.649 22.4549 78.2366 21.8234 77.7431 19.1413C77.6723 18.7583 77.6372 18.3793 77.6372 18.0045C77.6372 17.9735 77.6451 17.8405 77.6602 17.6058C77.6762 17.3716 77.6998 17.1686 77.7313 16.9965C77.7471 16.95 77.7625 16.8834 77.7782 16.7975C77.794 16.7115 77.8176 16.6295 77.8485 16.5515C77.8802 16.4733 77.9234 16.3717 77.9778 16.2469C78.0329 16.1216 78.0917 16.0044 78.1543 15.895C78.2956 15.6296 78.4759 15.3835 78.6953 15.1568C78.9149 14.93 79.1497 14.7232 79.4006 14.5359C79.6517 14.3481 79.9064 14.1844 80.1652 14.0435C80.4239 13.903 80.671 13.7938 80.9059 13.7155C81.2665 13.5906 81.6426 13.5007 82.0347 13.4459C83.1143 13.2954 84.3945 13.3795 85.4332 13.6922C85.8486 13.8171 86.2598 13.9968 86.6676 14.231C87.0755 14.4657 87.4634 14.7507 87.832 15.0865C88.2001 15.4225 88.5179 15.8171 88.7845 16.2704C88.8159 16.3482 88.8628 16.4419 88.9257 16.5515C88.9884 16.6608 89.0428 16.7546 89.0903 16.8327V16.8327Z" fill="#274059"/>
<path fill-rule="evenodd" clip-rule="evenodd" d="M103.802 0.754984L108.6 2.72639C108.312 3.4227 108.198 4.14664 108.239 4.85107L102.998 2.69748C102.339 2.42637 101.576 2.74239 101.304 3.40005L87.8274 35.9748C87.5553 36.6321 87.8725 37.3917 88.532 37.6628L93.7731 39.8167C93.2461 40.2876 92.8146 40.8808 92.5262 41.577L87.7284 39.6053C85.9965 38.8936 85.1639 36.8996 85.8779 35.1739L99.3552 2.59921C100.069 0.873228 102.07 0.0433119 103.802 0.754984V0.754984ZM117.596 6.42331L122.394 8.39466C124.126 9.10633 124.959 11.1004 124.244 12.8264L110.768 45.4011C110.053 47.1268 108.053 47.9566 106.321 47.2451L101.523 45.2735C101.811 44.5776 101.924 43.8533 101.883 43.1489L107.124 45.3026C107.784 45.5739 108.547 45.2576 108.818 44.6003L122.295 12.0252C122.567 11.3678 122.25 10.6083 121.59 10.3372L116.349 8.18363C116.877 7.71265 117.308 7.11922 117.596 6.42331V6.42331ZM102.805 3.16456L108.308 5.42546C108.591 7.00039 109.649 8.40254 111.243 9.0578C112.837 9.71272 114.58 9.46158 115.895 8.54309L121.397 10.8043C121.799 10.9695 121.993 11.4324 121.827 11.8332L108.35 44.4079C108.184 44.8083 107.72 45.001 107.318 44.8358L101.815 42.5745C101.532 40.9999 100.474 39.5974 98.879 38.9425C97.2851 38.2876 95.5426 38.5388 94.2276 39.4569L88.7254 37.196C88.3236 37.0308 88.1302 36.5679 88.296 36.1671L101.773 3.5928C101.939 3.192 102.403 2.99931 102.805 3.16456V3.16456Z" fill="#274059"/>
<path fill-rule="evenodd" clip-rule="evenodd" d="M107.414 26.2692V31.2982H102.708V26.2692H97.8135V21.5541H102.708V16.7014H107.414V21.5541H112.309V26.2692H107.414Z" fill="#FEFEFE"/>
<path d="M111.924 25.886H107.029V30.915H103.093V25.886H98.1987V21.9382H103.093V17.0856H107.029V21.9382H111.924V25.886Z" fill="#F1C72F"/>
</svg>
