<svg width="191" height="73" viewBox="0 0 191 73" fill="none" xmlns="http://www.w3.org/2000/svg">
<path d="M22.9024 22.8366H14.2275V44.1745H8.74688V22.8727H0V17.3931H22.9024V22.8366Z" fill="#F1C72F"/>
<path d="M31.2867 44.1743H25.8062V17.3931H31.2867V44.1743Z" fill="#F1C72F"/>
<path d="M51.2849 44.1744H46.5663C46.5177 44.1744 46.4089 44.1622 46.2399 44.1383C46.0704 44.114 45.9251 44.0896 45.8042 44.0662C45.3686 43.9932 44.9451 43.921 44.5338 43.8484C44.1221 43.7753 43.6747 43.6423 43.1908 43.4489C41.5697 42.8438 40.1906 42.0641 39.0537 41.1086C37.9154 40.1532 36.9847 39.1069 36.2586 37.9692C35.533 36.8321 35.0065 35.6468 34.6795 34.4132C34.3531 33.1791 34.1895 31.9693 34.1895 30.784C34.1895 30.5427 34.2134 30.1129 34.2627 29.496C34.3109 28.8792 34.3948 28.2923 34.5165 27.7356C34.6852 27.0587 34.9461 26.3206 35.2969 25.5221C35.6473 24.724 36.0891 23.9432 36.6217 23.1817C37.1537 22.4199 37.7702 21.6938 38.4724 21.004C39.1742 20.3146 39.961 19.7155 40.8318 19.2073C42.0657 18.482 43.2512 18.0102 44.3887 17.7925C44.4369 17.7925 44.5521 17.7687 44.7333 17.7205C44.9151 17.6717 45.1203 17.6174 45.3508 17.5565C45.5802 17.4966 45.8098 17.4479 46.0404 17.4113C46.2698 17.3753 46.4576 17.3569 46.6029 17.3569H51.2849V22.8006H46.8568C46.8081 22.8006 46.6628 22.831 46.4216 22.8914C46.1794 22.9518 45.9855 22.9941 45.8402 23.0178C45.4051 23.067 44.9268 23.2179 44.4068 23.4717C43.8864 23.7259 43.3726 24.0468 42.8643 24.4337C42.3561 24.821 41.8901 25.2556 41.467 25.7399C41.0436 26.2242 40.7232 26.7196 40.5054 27.2278C40.4561 27.349 40.3902 27.4878 40.3053 27.6451C40.2201 27.8025 40.1541 27.9538 40.1057 28.0985C39.9119 28.6553 39.7911 29.1209 39.7427 29.496C39.6945 29.8711 39.6701 30.2885 39.6701 30.7475C39.6701 31.4013 39.7549 32.0849 39.9245 32.7983C40.0937 33.5116 40.3724 34.195 40.7593 34.8488C41.1462 35.5015 41.6483 36.1128 42.2657 36.6814C42.8827 37.2499 43.6387 37.7277 44.5338 38.1149C44.6303 38.1632 44.7882 38.2236 45.006 38.2957C45.2239 38.3688 45.4474 38.4352 45.6773 38.4957C45.9073 38.5562 46.1312 38.6105 46.3485 38.6592C46.5663 38.7074 46.7477 38.7313 46.8933 38.7313H51.2849V44.1744Z" fill="#F1C72F"/>
<path d="M80.2851 44.1744H74.8041V27.0826L67.2548 38.078L59.6687 27.0826V44.1744H54.1885V17.3931H59.6326L67.2183 28.3888L74.8771 17.3931H80.2851V44.1744Z" fill="#FEFEFE"/>
<path d="M97.1261 34.6303L95.0935 30.2757L93.0245 34.6303H97.1261ZM107.688 44.2108H101.626L99.6668 40.0738H90.4477L88.4879 44.2108H82.4624L95.0935 17.3569L107.688 44.2108Z" fill="#FEFEFE"/>
<path d="M115.346 44.1743H109.866V17.3931H115.346V44.1743Z" fill="#FEFEFE"/>
<path d="M136.724 22.8368L132.078 25.1594C131.86 24.7004 131.581 24.3126 131.243 23.9978C130.904 23.6841 130.541 23.4237 130.154 23.2176C129.767 23.0125 129.368 22.8673 128.956 22.7826C128.545 22.6977 128.17 22.6551 127.832 22.6551C127.469 22.6551 127.099 22.686 126.724 22.7461C126.349 22.8068 126.01 22.9221 125.708 23.0907C125.405 23.2602 125.158 23.5085 124.964 23.835C124.77 24.1614 124.674 24.5786 124.674 25.0867C124.674 25.4497 124.794 25.8549 125.037 26.3021C125.278 26.7499 125.677 27.1189 126.234 27.4094C126.331 27.4581 126.428 27.5123 126.525 27.5722C126.621 27.6332 126.718 27.6874 126.815 27.7358C127.323 28.0023 127.832 28.2687 128.339 28.5342C128.848 28.8003 129.356 29.0547 129.864 29.2962C129.985 29.3684 130.136 29.4476 130.318 29.5323C130.499 29.6175 130.65 29.6958 130.771 29.7683C130.989 29.8649 131.231 29.9801 131.497 30.1126C131.763 30.2456 131.993 30.3729 132.187 30.4943C132.937 30.9289 133.554 31.401 134.038 31.9092C134.522 32.4173 134.897 32.9555 135.163 33.5236C135.429 34.0926 135.617 34.6728 135.726 35.2657C135.835 35.8592 135.889 36.445 135.889 37.0259C135.889 37.7279 135.804 38.3995 135.635 39.0403C135.465 39.6814 135.187 40.28 134.8 40.8363C134.413 41.3932 133.898 41.9121 133.257 42.3968C132.616 42.8806 131.824 43.304 130.88 43.6669C130.663 43.7395 130.409 43.8117 130.118 43.8842C129.828 43.9574 129.525 44.0117 129.211 44.0478C128.896 44.0838 128.575 44.1142 128.249 44.1381C127.922 44.1619 127.637 44.1747 127.396 44.1747C127.106 44.1747 126.87 44.1686 126.688 44.1564C126.507 44.1442 126.325 44.1321 126.144 44.1202C125.962 44.1082 125.811 44.0899 125.689 44.066C125.133 43.9933 124.534 43.8599 123.893 43.6669C123.252 43.4731 122.617 43.2005 121.988 42.8502C121.358 42.4989 120.759 42.0642 120.191 41.5436C119.623 41.0236 119.132 40.4007 118.721 39.6748C118.648 39.554 118.569 39.4149 118.485 39.258C118.4 39.1007 118.322 38.9489 118.25 38.8042L122.786 36.5177H122.895C123.113 36.9776 123.391 37.365 123.73 37.6787C124.068 37.9939 124.432 38.2478 124.819 38.4407C125.206 38.6345 125.599 38.7736 125.998 38.8585C126.398 38.9437 126.766 38.9854 127.106 38.9854C127.492 38.9854 127.873 38.9554 128.249 38.8945C128.624 38.8346 128.962 38.7194 129.265 38.5498C129.567 38.3807 129.815 38.1387 130.009 37.8239C130.202 37.5101 130.299 37.098 130.299 36.5903C130.299 35.5506 129.585 34.6673 128.158 33.9413C128.086 33.9175 127.928 33.8388 127.686 33.7053C127.444 33.5727 127.178 33.4276 126.888 33.2697C126.597 33.1128 126.289 32.9494 125.962 32.7799C125.635 32.6107 125.351 32.466 125.109 32.3447C125.012 32.2961 124.879 32.2305 124.71 32.1453C124.541 32.06 124.383 31.9939 124.238 31.9452C124.021 31.8244 123.784 31.6975 123.53 31.5644C123.276 31.432 123.028 31.3045 122.786 31.1833C122.036 30.772 121.419 30.3065 120.935 29.7861C120.451 29.2668 120.07 28.7216 119.792 28.1534C119.513 27.5854 119.32 27.0041 119.211 26.4112C119.102 25.8188 119.048 25.2319 119.048 24.6512C119.048 24.603 119.059 24.3969 119.084 24.0345C119.108 23.671 119.144 23.3571 119.193 23.0907C119.217 23.0181 119.241 22.9156 119.265 22.7826C119.289 22.6499 119.326 22.5226 119.374 22.4009C119.422 22.281 119.489 22.1235 119.574 21.9297C119.659 21.7363 119.749 21.5549 119.846 21.385C120.064 20.9739 120.342 20.593 120.681 20.2422C121.02 19.8918 121.383 19.5706 121.77 19.2802C122.157 18.9902 122.55 18.736 122.95 18.5182C123.349 18.3004 123.73 18.1313 124.093 18.0102C124.649 17.8167 125.23 17.6776 125.835 17.5927C126.439 17.5084 127.02 17.4658 127.577 17.4658C127.843 17.4902 128.067 17.5084 128.249 17.5202C128.43 17.5329 128.617 17.5445 128.811 17.5567C129.005 17.5689 129.161 17.5749 129.283 17.5749C129.839 17.6476 130.438 17.7806 131.08 17.974C131.72 18.168 132.356 18.4457 132.985 18.8087C133.614 19.1716 134.213 19.6132 134.782 20.1331C135.35 20.6539 135.84 21.2646 136.252 21.9662C136.3 22.087 136.373 22.2326 136.47 22.4009C136.566 22.5713 136.651 22.7155 136.724 22.8368Z" fill="#FEFEFE"/>
<path d="M158.956 0.395994L166.384 3.4581C165.938 4.53936 165.762 5.66403 165.826 6.75809L157.711 3.41305C156.69 2.99211 155.51 3.48287 155.089 4.50434L134.224 55.0991C133.803 56.1202 134.294 57.2999 135.315 57.721L143.429 61.0659C142.613 61.7979 141.945 62.7191 141.499 63.8006L134.071 60.738C131.39 59.6328 130.1 56.5356 131.206 53.8552L152.071 3.26001C153.177 0.579559 156.274 -0.709218 158.956 0.395994ZM180.311 9.19991L187.739 12.2615C190.42 13.3674 191.71 16.4645 190.604 19.1447L169.739 69.7401C168.634 72.4203 165.536 73.7093 162.855 72.604L155.427 69.542C155.873 68.4611 156.049 67.3361 155.985 66.242L164.099 69.5868C165.121 70.0084 166.301 69.5172 166.722 68.4957L187.586 17.9008C188.008 16.8799 187.517 15.7001 186.495 15.2785L178.381 11.9342C179.197 11.2026 179.866 10.2808 180.311 9.19991ZM157.413 4.13863L165.931 7.65019C166.369 10.0964 168.008 12.2742 170.476 13.2914C172.944 14.3092 175.642 13.919 177.677 12.4925L186.196 16.0045C186.819 16.2613 187.118 16.9801 186.861 17.6021L165.997 68.1974C165.74 68.8193 165.021 69.1181 164.398 68.8619L155.88 65.3499C155.441 62.9042 153.802 60.7258 151.334 59.7086C148.866 58.6914 146.169 59.0815 144.133 60.5076L135.615 56.996C134.992 56.7393 134.693 56.0203 134.95 55.3979L155.814 4.80315C156.071 4.18121 156.79 3.88143 157.413 4.13863Z" fill="#FEFEFE"/>
<path d="M164.548 40.0247V47.8357H157.262V40.0247H149.685V32.7012H157.262V25.1641H164.548V32.7012H172.126V40.0247H164.548Z" fill="#F1C72F"/>
<path d="M88.6073 60.078C88.6073 60.4901 88.463 60.8269 88.1745 61.0887C87.8855 61.3505 87.5589 61.4811 87.195 61.4811C86.7804 61.4811 86.4417 61.3379 86.178 61.0507C85.9139 60.7641 85.7827 60.4395 85.7827 60.078C85.7827 59.6789 85.9171 59.3465 86.1874 59.0776C86.4572 58.8097 86.7931 58.6758 87.195 58.6758C87.6091 58.6758 87.9483 58.8162 88.2119 59.0963C88.4757 59.3769 88.6073 59.7043 88.6073 60.078Z" fill="#F1C72F"/>
<path d="M98.8971 61.5H96.465C96.4402 61.5 96.3835 61.4933 96.2969 61.4811C96.2093 61.4691 96.1343 61.4559 96.0725 61.4443C95.8477 61.4062 95.6289 61.3692 95.4172 61.3318C95.205 61.2944 94.9745 61.2254 94.7253 61.1258C93.8897 60.8143 93.1785 60.412 92.5921 59.9192C92.006 59.4271 91.5264 58.8879 91.1521 58.3016C90.7779 57.7153 90.5066 57.1041 90.3384 56.4686C90.1697 55.832 90.0854 55.2087 90.0854 54.598C90.0854 54.4733 90.0977 54.2519 90.123 53.9338C90.1479 53.6158 90.1914 53.3138 90.2537 53.0266C90.3408 52.6778 90.4753 52.2974 90.656 51.8857C90.8368 51.4746 91.0646 51.0718 91.3391 50.6793C91.6135 50.2864 91.9311 49.9121 92.2927 49.5567C92.6548 49.2018 93.06 48.8931 93.5092 48.6307C94.1449 48.257 94.7562 48.0136 95.3427 47.9016C95.3675 47.9016 95.427 47.8889 95.5202 47.864C95.6135 47.8392 95.7198 47.8107 95.8382 47.7797C95.9568 47.7493 96.0753 47.7241 96.1938 47.7049C96.3119 47.6865 96.4088 47.6772 96.4837 47.6772H98.8971V50.4831H96.6145C96.5897 50.4831 96.5146 50.4985 96.3901 50.5294C96.2654 50.5613 96.1657 50.5824 96.0912 50.595C95.8664 50.6202 95.62 50.698 95.352 50.8292C95.0831 50.9598 94.8191 51.1256 94.5566 51.3243C94.2948 51.5242 94.0544 51.749 93.8362 51.9981C93.6178 52.2473 93.4531 52.503 93.3411 52.7649C93.3152 52.8271 93.2816 52.8992 93.238 52.9798C93.194 53.0609 93.1598 53.1386 93.1349 53.2139C93.0347 53.5006 92.973 53.7409 92.9481 53.9338C92.9227 54.1272 92.9105 54.3426 92.9105 54.5793C92.9105 54.9159 92.9537 55.2681 93.0413 55.6358C93.1288 56.0044 93.2717 56.3561 93.4718 56.6928C93.6708 57.0296 93.9299 57.3447 94.2479 57.6375C94.5661 57.9302 94.9558 58.177 95.4172 58.3765C95.4672 58.4014 95.5483 58.4324 95.6607 58.4693C95.7727 58.5072 95.8879 58.5418 96.0069 58.5728C96.1249 58.6037 96.2406 58.6322 96.3527 58.6571C96.465 58.6819 96.5587 58.6941 96.6333 58.6941H98.8971V61.5Z" fill="#F1C72F"/>
<path d="M110.851 54.6163C110.851 54.2547 110.802 53.881 110.702 53.4941C110.602 53.1078 110.44 52.7396 110.216 52.3902C109.991 52.0414 109.704 51.72 109.355 51.4269C109.006 51.1342 108.581 50.8944 108.083 50.7066C107.983 50.6695 107.864 50.6415 107.727 50.6227C107.59 50.6045 107.472 50.5824 107.372 50.5572C107.259 50.5324 107.129 50.5136 106.979 50.5015C106.829 50.4887 106.742 50.4827 106.717 50.4827C106.43 50.4827 106.131 50.5202 105.819 50.5947C105.507 50.6695 105.195 50.7881 104.884 50.9501C104.572 51.1125 104.276 51.3182 103.995 51.5674C103.714 51.8166 103.468 52.1164 103.256 52.4652C102.994 52.9022 102.826 53.3325 102.751 53.756C102.726 53.8932 102.704 54.0304 102.685 54.1672C102.667 54.3043 102.657 54.4542 102.657 54.6163C102.657 55.1651 102.763 55.6856 102.976 56.1782C103.187 56.6709 103.481 57.1041 103.855 57.4779C104.229 57.8521 104.665 58.1485 105.164 58.3668C105.663 58.585 106.193 58.6938 106.754 58.6938C107.303 58.6938 107.827 58.5879 108.326 58.3762C108.824 58.1641 109.261 57.8741 109.635 57.506C110.01 57.1388 110.306 56.7084 110.525 56.2157C110.742 55.723 110.851 55.1905 110.851 54.6163ZM113.677 54.6163C113.677 55.5769 113.496 56.4747 113.133 57.3098C112.771 58.1454 112.277 58.8716 111.653 59.4885C111.029 60.1062 110.297 60.5956 109.461 60.9572C108.625 61.3192 107.726 61.4996 106.763 61.4996C105.802 61.4996 104.902 61.3192 104.066 60.9572C103.23 60.5956 102.496 60.1034 101.865 59.4796C101.234 58.8563 100.738 58.127 100.376 57.291C100.013 56.456 99.8325 55.5582 99.8325 54.5976C99.8325 53.6501 100.013 52.7547 100.376 51.9135C100.738 51.0719 101.234 50.3361 101.865 49.7067C102.496 49.0767 103.23 48.5812 104.066 48.2192C104.902 47.8576 105.802 47.6772 106.763 47.6772C107.738 47.6772 108.643 47.8609 109.48 48.2285C110.316 48.5966 111.048 49.0954 111.672 49.7254C112.297 50.3549 112.786 51.0906 113.143 51.9327C113.498 52.7739 113.677 53.6689 113.677 54.6163Z" fill="#F1C72F"/>
<path d="M128.605 61.4999H125.781V52.6893L121.889 58.3572L117.979 52.6893V61.4999H115.154V47.6953H117.96L121.871 53.3633L125.818 47.6953H128.605V61.4999Z" fill="#F1C72F"/>
</svg>
