<svg width="25" height="24" viewBox="0 0 25 24" fill="none" xmlns="http://www.w3.org/2000/svg">
<path opacity="0.4" d="M16.7421 2H20.1281C21.5304 2 22.6666 3.14585 22.6666 4.55996V7.97452C22.6666 9.38864 21.5304 10.5345 20.1281 10.5345H16.7421C15.3399 10.5345 14.2036 9.38864 14.2036 7.97452V4.55996C14.2036 3.14585 15.3399 2 16.7421 2Z" fill="url(#paint0_linear_103_21127)"/>
<path fill-rule="evenodd" clip-rule="evenodd" d="M5.20503 2H8.59099C9.99326 2 11.1295 3.14585 11.1295 4.55996V7.97452C11.1295 9.38864 9.99326 10.5345 8.59099 10.5345H5.20503C3.80276 10.5345 2.6665 9.38864 2.6665 7.97452V4.55996C2.6665 3.14585 3.80276 2 5.20503 2ZM5.20503 13.4655H8.59099C9.99326 13.4655 11.1295 14.6114 11.1295 16.0255V19.44C11.1295 20.8532 9.99326 22 8.59099 22H5.20503C3.80276 22 2.6665 20.8532 2.6665 19.44V16.0255C2.6665 14.6114 3.80276 13.4655 5.20503 13.4655ZM20.128 13.4655H16.742C15.3397 13.4655 14.2035 14.6114 14.2035 16.0255V19.44C14.2035 20.8532 15.3397 22 16.742 22H20.128C21.5302 22 22.6665 20.8532 22.6665 19.44V16.0255C22.6665 14.6114 21.5302 13.4655 20.128 13.4655Z" fill="url(#paint1_linear_103_21127)"/>
<defs>
<linearGradient id="paint0_linear_103_21127" x1="22.6666" y1="10.5345" x2="12.5834" y2="7.63542" gradientUnits="userSpaceOnUse">
<stop stop-color="#023E5E"/>
<stop offset="1" stop-color="#557E93"/>
</linearGradient>
<linearGradient id="paint1_linear_103_21127" x1="22.6665" y1="22" x2="-1.1317" y2="15.0999" gradientUnits="userSpaceOnUse">
<stop stop-color="#023E5E"/>
<stop offset="1" stop-color="#557E93"/>
</linearGradient>
</defs>
</svg>
