<svg width="33" height="32" viewBox="0 0 33 32" fill="none" xmlns="http://www.w3.org/2000/svg">
<circle cx="16.5" cy="15.5" r="15.5" fill="white"/>
<path d="M17.9284 6.01667C18.9965 6 20.0564 6.00833 21.1163 6C21.1815 7.27498 21.6299 8.57497 22.5431 9.47496C23.4562 10.3999 24.7444 10.8249 26 10.9666V14.3249C24.826 14.2832 23.6437 14.0332 22.5757 13.5166C22.111 13.2999 21.6788 13.0249 21.2549 12.7416C21.2467 15.1749 21.263 17.6082 21.2386 20.0332C21.1733 21.1998 20.7983 22.3581 20.1379 23.3165C19.0698 24.9164 17.2191 25.9581 15.3194 25.9914C14.1535 26.0581 12.9876 25.7331 11.9929 25.1331C10.346 24.1414 9.18826 22.3248 9.01704 20.3748C9.00074 19.9582 8.99258 19.5415 9.00889 19.1332C9.15564 17.5499 9.92204 16.0332 11.1124 14.9999C12.4658 13.7999 14.3573 13.2249 16.1266 13.5666C16.1429 14.7999 16.094 16.0332 16.094 17.2665C15.2868 16.9999 14.341 17.0749 13.6317 17.5749C13.1181 17.9165 12.7267 18.4415 12.5229 19.0332C12.3517 19.4582 12.4006 19.9248 12.4087 20.3748C12.6044 21.7415 13.8926 22.8915 15.2623 22.7665C16.1755 22.7581 17.0479 22.2165 17.5208 21.4248C17.6757 21.1498 17.8469 20.8665 17.855 20.5415C17.9366 19.0498 17.9039 17.5665 17.9121 16.0749C17.9203 12.7166 17.9039 9.36662 17.9284 6.01667Z" fill="#EA1E61" style="mix-blend-mode:darken"/>
<path d="M17.2282 5.51667C18.2963 5.5 19.3562 5.50833 20.4161 5.5C20.4813 6.77498 20.9297 8.07497 21.8429 8.97496C22.756 9.89994 24.0442 10.3249 25.2998 10.4666V13.8249C24.1258 13.7832 22.9436 13.5332 21.8755 13.0166C21.4108 12.7999 20.9786 12.5249 20.5547 12.2416C20.5465 14.6749 20.5628 17.1082 20.5384 19.5332C20.4732 20.6998 20.0981 21.8581 19.4377 22.8165C18.3696 24.4164 16.5189 25.4581 14.6192 25.4914C13.4533 25.5581 12.2874 25.2331 11.2927 24.6331C9.64581 23.6414 8.48806 21.8248 8.31685 19.8748C8.30054 19.4582 8.29239 19.0415 8.30869 18.6332C8.45545 17.0499 9.22184 15.5332 10.4122 14.4999C11.7656 13.2999 13.6571 12.7249 15.4264 13.0666C15.4427 14.2999 15.3938 15.5332 15.3938 16.7665C14.5866 16.4999 13.6408 16.5749 12.9315 17.0749C12.4179 17.4165 12.0265 17.9415 11.8227 18.5332C11.6515 18.9582 11.7004 19.4248 11.7085 19.8748C11.9042 21.2415 13.1924 22.3915 14.5621 22.2665C15.4753 22.2581 16.3477 21.7165 16.8206 20.9248C16.9755 20.6498 17.1467 20.3665 17.1548 20.0415C17.2364 18.5498 17.2038 17.0665 17.2119 15.5749C17.2201 12.2166 17.2038 8.86662 17.2282 5.51667Z" fill="#00BCD3" style="mix-blend-mode:darken"/>
</svg>
