<svg width="1280" height="44" viewBox="0 0 1280 44" fill="none" xmlns="http://www.w3.org/2000/svg">
<path d="M0 22.0916L42.6667 20.2773C85.3333 18.3261 170.667 14.9029 256 9.32305C341.333 3.94862 426.667 -3.58242 512 1.9974C597.333 7.37183 682.667 25.8571 768 31.2316C853.333 36.8114 938.667 29.2803 1024 23.9059C1109.33 18.3261 1194.67 14.9029 1237.33 12.9516L1280 11.1373V44.0001H1237.33C1194.67 44.0001 1109.33 44.0001 1024 44.0001C938.667 44.0001 853.333 44.0001 768 44.0001C682.667 44.0001 597.333 44.0001 512 44.0001C426.667 44.0001 341.333 44.0001 256 44.0001C170.667 44.0001 85.3333 44.0001 42.6667 44.0001H0V22.0916Z" fill="#023E5E"/>
</svg>
