<svg width="61" height="18" viewBox="0 0 61 18" fill="none" xmlns="http://www.w3.org/2000/svg">
<path fill-rule="evenodd" clip-rule="evenodd" d="M24.8956 5.85338C24.5409 6.39391 24.3618 7.03116 24.3828 7.67766L24.3808 7.67514C24.3808 9.59563 25.5974 10.5562 27.163 10.5619C27.7436 10.595 28.3237 10.4909 28.856 10.2572C29.3888 10.0237 29.859 9.66711 30.2281 9.21739C30.5053 9.69039 30.8672 10.1086 31.2948 10.451C31.3647 10.4886 31.4432 10.5048 31.5217 10.4971C31.6003 10.4894 31.6747 10.4582 31.7353 10.4078L31.7384 10.4108C32.1105 10.0855 32.784 9.49721 33.1618 9.18424C33.1942 9.15274 33.2203 9.11502 33.2388 9.07334C33.2568 9.03166 33.2665 8.9868 33.2671 8.94137C33.2681 8.89588 33.2599 8.85061 33.2429 8.80837C33.2265 8.76607 33.2014 8.72758 33.1695 8.69495C32.7301 8.23227 32.4817 7.62041 32.474 6.98208V4.10135C32.474 4.00682 32.4745 3.91289 32.475 3.81963V3.81952V3.81941V3.8193L32.475 3.81715C32.4809 2.70918 32.4864 1.69652 31.6531 0.922036C30.8595 0.290285 29.8657 -0.03574 28.8529 0.00311165C27.084 0.00311165 25.1056 0.656293 24.6949 2.82962C24.6857 2.87346 24.6857 2.91884 24.6949 2.96262C24.7047 3.00641 24.7227 3.04763 24.7483 3.08406C24.7745 3.1205 24.8079 3.15144 24.8458 3.17441C24.8843 3.19738 24.927 3.21182 24.9716 3.21758L26.7724 3.40978C26.8561 3.39611 26.9331 3.35582 26.9916 3.29487C27.0501 3.23392 27.0871 3.15544 27.0978 3.07152C27.1702 2.73666 27.3617 2.43992 27.6363 2.2359C27.9115 2.03188 28.2513 1.9349 28.5921 1.96291C28.7913 1.95325 28.99 1.99205 29.1712 2.07582C29.3524 2.15959 29.5105 2.28555 29.6327 2.44368C29.839 2.85671 29.9181 3.322 29.8606 3.78015V4.01553C29.684 4.03573 29.4986 4.05471 29.3076 4.07428L29.3074 4.07429C28.3318 4.17419 27.2086 4.28921 26.3643 4.65792C25.7637 4.89534 25.2504 5.31279 24.8956 5.85338ZM0.516307 5.85638C0.161595 6.39645 -0.0180709 7.03298 0.00143568 7.67917V7.67866C0.00143568 9.59709 1.22111 10.5563 2.78626 10.5619C3.36735 10.5955 3.94793 10.4914 4.48077 10.2578C5.01361 10.0241 5.48382 9.6675 5.8529 9.21741C6.12959 9.69088 6.49149 10.1093 6.92012 10.451C6.98891 10.4893 7.06745 10.5061 7.14547 10.4986C7.22401 10.4912 7.29845 10.4599 7.35902 10.4093L7.36467 10.4124C7.73529 10.0865 8.40775 9.49981 8.78967 9.18581C8.82201 9.15389 8.84819 9.11581 8.86616 9.07388C8.88361 9.03189 8.89337 8.98697 8.89337 8.94139C8.89388 8.89575 8.88515 8.85012 8.86821 8.80788C8.85127 8.76563 8.82561 8.7274 8.79327 8.69497C8.3518 8.23332 8.10181 7.6212 8.0936 6.9821V4.10137C8.0936 4.00387 8.09414 3.907 8.09468 3.81085C8.10091 2.70535 8.1066 1.69507 7.27637 0.92206C6.48225 0.290155 5.48792 -0.0358708 4.47358 0.0031351C2.70464 0.0031351 0.73242 0.656317 0.315595 2.82965C0.307381 2.87333 0.307895 2.91861 0.317135 2.96213C0.326375 3.00566 0.344341 3.04678 0.370008 3.08311C0.395674 3.11939 0.428528 3.14976 0.466514 3.17294C0.504501 3.19612 0.547107 3.21133 0.59074 3.2176L2.39921 3.4098C2.48185 3.39526 2.55783 3.35476 2.61532 3.29386C2.67333 3.23302 2.70977 3.15485 2.72004 3.07155C2.79345 2.73673 2.98492 2.4399 3.26007 2.23593C3.53521 2.03195 3.87504 1.93513 4.21589 1.96294C4.41558 1.95353 4.61423 1.99213 4.79544 2.07584C4.97716 2.15956 5.13527 2.28572 5.25795 2.4437C5.46226 2.8574 5.54028 3.32233 5.48279 3.78018V4.01807C5.30128 4.03921 5.1103 4.05901 4.91336 4.07943H4.91335C3.94229 4.18009 2.82621 4.29579 1.98546 4.66195C1.38435 4.89917 0.871533 5.31636 0.516307 5.85638ZM46.7988 0.0888672C44.1092 0.0888672 42.6175 2.38548 42.6172 5.33434C42.6175 8.26779 44.0887 10.6225 46.7988 10.6245C49.4019 10.6245 51.0517 8.32902 51.0517 5.43673C51.0594 2.4432 49.5615 0.0888672 46.7988 0.0888672ZM37.8052 16.3751C38.2287 15.3308 39.1702 12.9873 38.7256 12.4178C38.2887 11.8583 35.8613 12.1406 34.7112 12.2745L34.6518 12.2814C34.3089 12.322 34.2591 12.0243 34.5651 11.8116C36.5624 10.4184 39.8354 10.821 40.2148 11.2897C40.5942 11.7583 40.1183 15.0248 38.24 16.5778C38.1615 16.6503 38.0609 16.6934 37.9546 16.7006C37.8068 16.7017 37.7226 16.5773 37.8057 16.3731L37.8052 16.3751ZM8.59975 12.0065C8.27327 11.713 8.56536 11.312 8.9596 11.5438C13.7695 14.2757 19.2062 15.7088 24.7363 15.7027C28.8697 15.6839 32.9589 14.8526 36.7719 13.2557C37.3633 13.0095 37.854 13.6467 37.2781 14.0707C33.7874 16.6294 28.728 17.9918 24.3698 17.9918C18.5538 18.0236 12.9333 15.8906 8.59975 12.0065ZM45.3565 5.0369V5.0717C45.3563 6.24401 45.356 8.66892 46.7989 8.66892C48.245 8.66892 48.3138 6.67489 48.3081 5.45846C48.3389 4.61082 48.245 3.76296 48.0299 2.94261C47.9714 2.66869 47.8163 2.4252 47.593 2.25659C47.3697 2.08792 47.0931 2.00595 46.8138 2.02522C45.4453 2.02574 45.3565 3.87551 45.3565 5.0349V5.0369ZM2.72193 7.35777C2.72193 8.15742 3.13722 8.69625 3.85126 8.69625C4.12127 8.685 4.38307 8.60133 4.60945 8.45384C4.83532 8.30635 5.01806 8.10058 5.13716 7.85811C5.43643 7.25082 5.55758 6.57071 5.48622 5.89734V5.49885C4.13975 5.49628 2.71988 5.78165 2.71988 7.35525L2.72193 7.35777ZM27.0948 7.35796C27.0948 8.15761 27.5127 8.69644 28.2283 8.69644C28.4978 8.68447 28.759 8.6005 28.9844 8.45305C29.2103 8.30561 29.3925 8.1002 29.5116 7.8583C29.8109 7.25102 29.932 6.57091 29.8607 5.89753V5.49904C28.5126 5.49647 27.0928 5.78185 27.0928 7.35544L27.0948 7.35796ZM57.6427 10.3376C57.7022 10.3922 57.7787 10.4247 57.8588 10.43L59.7278 10.434C59.8131 10.4344 59.8962 10.4046 59.9619 10.3497C60.0276 10.2948 60.0718 10.2183 60.0867 10.1339V4.16318V4.1603C60.0867 3.24267 60.0867 1.96999 59.5995 1.2102C59.3665 0.849687 59.0431 0.556449 58.6617 0.360032C58.2803 0.163615 57.8542 0.0705974 57.4261 0.0905371C56.1443 0.0905371 55.4107 0.710057 54.8928 2.00563H54.8635V0.556758C54.8435 0.482395 54.8009 0.416151 54.7408 0.368049C54.6808 0.319947 54.6069 0.292813 54.5304 0.289781H52.8066C52.7188 0.28716 52.6336 0.317069 52.5669 0.374062C52.5007 0.431106 52.458 0.510968 52.4473 0.597922L52.4493 10.0852C52.4514 10.1748 52.4868 10.2605 52.5494 10.3246C52.6115 10.3887 52.6967 10.4262 52.7861 10.43H54.6341C54.6803 10.4313 54.7265 10.4235 54.7701 10.4069C54.8137 10.3902 54.8533 10.3652 54.8871 10.3332C54.921 10.3011 54.9482 10.2627 54.9672 10.2202C54.9862 10.1776 54.9965 10.1318 54.998 10.0852V4.98071C54.9621 4.36649 55.0632 3.75195 55.2947 3.18202C55.3825 2.96526 55.5314 2.7785 55.7223 2.64401C55.9138 2.50957 56.1397 2.43284 56.3727 2.4237C57.5538 2.4237 57.5421 3.71095 57.5329 4.72493C57.5321 4.81186 57.5313 4.89678 57.5313 4.97871V10.1298C57.5436 10.2098 57.5831 10.2831 57.6427 10.3376ZM20.5435 10.4262C20.4547 10.4214 20.371 10.3834 20.3094 10.3198C20.2473 10.2563 20.2114 10.1717 20.2088 10.0829V5.05477C20.236 4.4614 20.2191 3.86686 20.1575 3.27612C20.1195 3.02317 19.9835 2.7952 19.7787 2.64226C19.5738 2.48937 19.3172 2.42405 19.0646 2.46008C18.8239 2.46707 18.5898 2.54426 18.3927 2.68245C18.195 2.82059 18.0426 3.01351 17.9533 3.23747C17.7987 3.83012 17.7407 4.44373 17.7813 5.05477V10.0829C17.7803 10.1291 17.77 10.1747 17.7515 10.217C17.7325 10.2592 17.7058 10.2975 17.6725 10.3293C17.6391 10.3613 17.6001 10.386 17.557 10.4026C17.5138 10.4193 17.4676 10.4274 17.422 10.4262H15.5647C15.4759 10.4221 15.3917 10.3845 15.3296 10.3208C15.267 10.2571 15.2311 10.1721 15.229 10.0829V5.05477C15.229 4.9486 15.2307 4.83742 15.2325 4.72331C15.2484 3.70004 15.2679 2.44055 14.0797 2.44055C12.7947 2.44055 12.7973 3.84663 12.7993 4.93048L12.7994 5.05477V10.084C12.7979 10.1301 12.7876 10.1753 12.7691 10.2175C12.7506 10.2596 12.7239 10.2976 12.6906 10.3293C12.6572 10.3612 12.6177 10.3861 12.5746 10.4026C12.5314 10.4192 12.4858 10.4274 12.4396 10.4262H10.5787C10.4951 10.4235 10.415 10.3907 10.3539 10.3334C10.2928 10.2761 10.2543 10.1981 10.2461 10.1146V0.630297C10.2471 0.5842 10.2569 0.538975 10.2759 0.496783C10.2943 0.454591 10.321 0.416664 10.3544 0.384905C10.3878 0.353094 10.4273 0.328169 10.4704 0.311621C10.513 0.295073 10.5592 0.286799 10.6054 0.288032H12.3384C12.4236 0.290345 12.5053 0.324109 12.5674 0.382849C12.63 0.441641 12.6685 0.521348 12.6757 0.606709V1.84431H12.7075C12.8631 1.32089 13.188 0.864024 13.6315 0.545965C14.0745 0.227905 14.6115 0.0667422 15.1561 0.0877612C16.3203 0.0877612 17.0498 0.648439 17.5693 1.84431C17.7454 1.39268 18.0369 0.995431 18.4147 0.692532C18.7931 0.389633 19.2438 0.191828 19.7227 0.118904C20.2016 0.0459802 20.6909 0.100352 21.1421 0.276983C21.5928 0.453563 21.9896 0.74639 22.2914 1.12514C22.795 1.80807 22.7793 2.75704 22.7645 3.65386C22.762 3.80376 22.7596 3.95221 22.7596 4.09771L22.7575 10.0829C22.7565 10.1291 22.7462 10.1747 22.7272 10.217C22.7088 10.2592 22.6821 10.297 22.6487 10.3289C22.6153 10.3607 22.5758 10.386 22.5332 10.4026C22.4901 10.4193 22.4439 10.4273 22.3977 10.4262H20.5435ZM34.3877 8.46651V9.84364L34.3857 9.84164C34.3882 9.92756 34.4216 10.0094 34.4801 10.0725C34.5386 10.1355 34.6177 10.1755 34.7034 10.1844C34.7445 10.1842 34.785 10.1731 34.8215 10.1528C35.8194 9.63962 36.9246 9.37141 38.0467 9.36992C39.1684 9.36838 40.2746 9.63381 41.2741 10.1443C41.3244 10.1646 41.3793 10.1723 41.4327 10.1664C41.4866 10.1604 41.5384 10.141 41.5826 10.1102C41.6272 10.0793 41.6637 10.038 41.6883 9.9897C41.713 9.94139 41.7253 9.88738 41.7237 9.83311V8.38475C41.7201 8.27601 41.6878 8.16983 41.6303 8.07759C41.5728 7.98534 41.4917 7.91005 41.3962 7.85876C40.3208 7.3042 39.1176 7.0473 37.9102 7.11503L41.0805 2.62231C41.3757 2.21787 41.5425 1.96538 41.5425 1.77061V0.607782C41.5436 0.56153 41.5348 0.516048 41.5169 0.473291C41.4994 0.430585 41.4732 0.391579 41.4399 0.359357C41.4065 0.327186 41.3675 0.302004 41.3244 0.285611C41.2807 0.269217 41.2345 0.261919 41.1883 0.264026H35.0797C35.0345 0.262433 34.9888 0.270399 34.9467 0.287101C34.9041 0.303803 34.8656 0.329139 34.8333 0.361413C34.8009 0.393635 34.7758 0.43187 34.7589 0.474319C34.7419 0.516717 34.7342 0.562198 34.7358 0.607782V1.96533C34.7347 2.01138 34.7435 2.05681 34.7609 2.09936C34.7784 2.14191 34.8045 2.1803 34.8379 2.21226C34.8708 2.24423 34.9098 2.26946 34.9529 2.28555C34.996 2.30163 35.0422 2.30862 35.0884 2.3061H38.2808L34.6115 7.53556C34.4457 7.81667 34.3682 8.14075 34.3877 8.46651Z" fill="#212121"/>
</svg>
