<svg width="42" height="32" viewBox="0 0 42 32" fill="none" xmlns="http://www.w3.org/2000/svg">
<g clip-path="url(#clip0_349_5849)">
<path d="M7.48409 31.8411V29.7231C7.48409 28.911 6.98978 28.3817 6.14251 28.3817C5.71895 28.3817 5.26001 28.5229 4.94226 28.9818C4.69527 28.5935 4.3423 28.3817 3.81278 28.3817C3.45965 28.3817 3.10685 28.4875 2.82431 28.8758V28.4523H2.08301V31.8411H2.82431V29.9701C2.82431 29.3701 3.14206 29.0876 3.63637 29.0876C4.13036 29.0876 4.37768 29.4054 4.37768 29.9701V31.8411H5.11899V29.9701C5.11899 29.3701 5.47179 29.0876 5.93073 29.0876C6.42504 29.0876 6.67203 29.4054 6.67203 29.9701V31.8411H7.48409ZM18.4623 28.4523H17.2623V27.4286H16.521V28.4523H15.8502V29.1228H16.5208V30.6762C16.5208 31.4529 16.8385 31.9116 17.6858 31.9116C18.0036 31.9116 18.3564 31.8058 18.6037 31.6646L18.3918 31.0292C18.18 31.1703 17.933 31.2057 17.7564 31.2057C17.4034 31.2057 17.2623 30.9939 17.2623 30.6408V29.1228H18.4623V28.4523ZM24.7459 28.3815C24.3224 28.3815 24.04 28.5935 23.8634 28.8758V28.4523H23.1221V31.8411H23.8634V29.9349C23.8634 29.3701 24.1104 29.0524 24.5694 29.0524C24.7105 29.0524 24.8871 29.0878 25.0283 29.123L25.2401 28.4171C25.0989 28.3817 24.8871 28.3817 24.7459 28.3817V28.3815ZM15.2501 28.7346C14.897 28.4875 14.4028 28.3817 13.8733 28.3817C13.0262 28.3817 12.4615 28.8052 12.4615 29.4759C12.4615 30.0408 12.885 30.3584 13.6263 30.4644L13.9793 30.4998C14.3676 30.5702 14.5794 30.6762 14.5794 30.8528C14.5794 31.0997 14.297 31.2763 13.8027 31.2763C13.3086 31.2763 12.9202 31.0997 12.6731 30.9233L12.3201 31.4881C12.7085 31.7705 13.238 31.9116 13.7674 31.9116C14.7558 31.9116 15.3207 31.4529 15.3207 30.8174C15.3207 30.2173 14.8618 29.8995 14.1557 29.7937L13.8027 29.7583C13.485 29.7229 13.238 29.6525 13.238 29.4407C13.238 29.1936 13.485 29.0524 13.8733 29.0524C14.297 29.0524 14.7206 29.2288 14.9324 29.3348L15.2501 28.7346ZM34.9478 28.3817C34.5241 28.3817 34.2417 28.5935 34.0652 28.8758V28.4523H33.3239V31.8411H34.0652V29.9349C34.0652 29.3701 34.3123 29.0524 34.7711 29.0524C34.9124 29.0524 35.089 29.0878 35.2302 29.123L35.442 28.4171C35.3008 28.3817 35.089 28.3817 34.9478 28.3817ZM25.4872 30.1467C25.4872 31.1703 26.1932 31.9116 27.2876 31.9116C27.7817 31.9116 28.1347 31.8058 28.4877 31.5235L28.1347 30.9233C27.8523 31.1351 27.57 31.2409 27.2522 31.2409C26.6521 31.2409 26.2285 30.8174 26.2285 30.1467C26.2285 29.5113 26.6521 29.0876 27.2522 29.0524C27.57 29.0524 27.8523 29.1582 28.1347 29.3701L28.4877 28.77C28.1347 28.4875 27.7817 28.3817 27.2876 28.3817C26.1932 28.3817 25.4872 29.123 25.4872 30.1467ZM32.3356 30.1467V28.4523H31.5942V28.8758C31.3471 28.5582 30.9941 28.3817 30.5352 28.3817C29.5821 28.3817 28.8408 29.123 28.8408 30.1467C28.8408 31.1703 29.5821 31.9116 30.5352 31.9116C31.0293 31.9116 31.3825 31.7352 31.5942 31.4175V31.8411H32.3356V30.1467ZM29.6173 30.1467C29.6173 29.5465 30.0057 29.0524 30.641 29.0524C31.2411 29.0524 31.6648 29.5113 31.6648 30.1467C31.6648 30.7468 31.2411 31.2409 30.641 31.2409C30.0057 31.2056 29.6173 30.7468 29.6173 30.1467ZM20.757 28.3817C19.7686 28.3817 19.0625 29.0876 19.0625 30.1467C19.0625 31.2057 19.7684 31.9116 20.7922 31.9116C21.2864 31.9116 21.7807 31.7705 22.169 31.4529L21.8159 30.9233C21.5335 31.1351 21.1806 31.2763 20.8276 31.2763C20.3687 31.2763 19.9097 31.0645 19.8038 30.4642H22.3102V30.182C22.3456 29.0876 21.7101 28.3817 20.7569 28.3817H20.757ZM20.757 29.017C21.2158 29.017 21.5337 29.2995 21.6041 29.8291H19.8391C19.9097 29.3701 20.2275 29.017 20.757 29.017ZM39.1485 30.1467V27.1108H38.4072V28.8758C38.16 28.5582 37.8071 28.3817 37.3481 28.3817C36.3951 28.3817 35.6537 29.123 35.6537 30.1467C35.6537 31.1703 36.3951 31.9116 37.3481 31.9116C37.8424 31.9116 38.1954 31.7352 38.4072 31.4175V31.8411H39.1485V30.1467ZM36.4304 30.1467C36.4304 29.5465 36.8186 29.0524 37.4541 29.0524C38.0542 29.0524 38.4778 29.5113 38.4778 30.1467C38.4778 30.7468 38.0542 31.2409 37.4541 31.2409C36.8186 31.2056 36.4304 30.7468 36.4304 30.1467ZM11.6494 30.1467V28.4523H10.9081V28.8758C10.6609 28.5582 10.308 28.3817 9.84904 28.3817C8.89595 28.3817 8.15465 29.123 8.15465 30.1467C8.15465 31.1703 8.89595 31.9116 9.84904 31.9116C10.3433 31.9116 10.6963 31.7352 10.9081 31.4175V31.8411H11.6494V30.1467ZM8.89595 30.1467C8.89595 29.5465 9.28429 29.0524 9.91963 29.0524C10.5198 29.0524 10.9435 29.5113 10.9435 30.1467C10.9435 30.7468 10.5198 31.2409 9.91963 31.2409C9.28429 31.2056 8.89595 30.7468 8.89595 30.1467Z" fill="black"/>
<path d="M15.0029 2.71826H26.1225V22.6983H15.0029V2.71826Z" fill="#FF5F00"/>
<path d="M15.7088 12.7082C15.7088 8.64868 17.615 5.04796 20.5448 2.71807C18.3916 1.02368 15.6736 0 12.7083 0C5.6833 0 0 5.6833 0 12.7082C0 19.7329 5.6833 25.4164 12.7082 25.4164C15.6734 25.4164 18.3915 24.3927 20.5448 22.6981C17.615 20.4036 15.7088 16.7677 15.7088 12.7082Z" fill="#EB001B"/>
<path d="M41.1249 12.7082C41.1249 19.7329 35.4416 25.4164 28.4167 25.4164C25.4515 25.4164 22.7334 24.3927 20.5801 22.6981C23.5453 20.3684 25.4163 16.7677 25.4163 12.7082C25.4163 8.64868 23.5099 5.04796 20.5801 2.71807C22.7332 1.02368 25.4515 0 28.4167 0C35.4416 0 41.125 5.71867 41.125 12.7082H41.1249Z" fill="#F79E1B"/>
</g>
<defs>
<clipPath id="clip0_349_5849">
<rect width="41.1658" height="32" fill="white"/>
</clipPath>
</defs>
</svg>
