<svg width="255" height="217" viewBox="0 0 255 217" fill="none" xmlns="http://www.w3.org/2000/svg">
<g clip-path="url(#clip0_115_26656)">
<path d="M228.628 202.111L224.34 206.053L227.748 200.343C225.063 195.481 220.671 191.279 220.671 191.279C220.671 191.279 211.561 199.995 211.561 206.846C211.561 213.696 215.64 216.088 220.671 216.088C225.703 216.088 229.782 213.696 229.782 206.846C229.726 205.205 229.333 203.594 228.628 202.111Z" fill="#F0F0F0"/>
<path d="M223.237 206.266V206.604C223.217 210.529 222.554 213.591 221.253 215.748C221.235 215.78 221.215 215.81 221.196 215.842L221.05 215.753L220.911 215.666C222.355 213.337 222.865 210.046 222.884 206.622C222.886 206.512 222.887 206.4 222.886 206.288C222.88 204.838 222.792 203.372 222.649 201.948C222.639 201.838 222.628 201.726 222.616 201.614C222.418 199.735 222.134 197.939 221.842 196.379C221.822 196.269 221.801 196.159 221.779 196.05C221.275 193.412 220.761 191.501 220.644 191.078C220.63 191.026 220.622 190.998 220.62 190.991L220.779 190.946L220.781 190.945L220.942 190.899C220.943 190.906 220.972 191.001 221.019 191.179C221.198 191.841 221.663 193.638 222.12 196.008C222.14 196.115 222.162 196.226 222.182 196.336C222.42 197.601 222.653 199.016 222.837 200.5C222.884 200.873 222.926 201.241 222.963 201.604C222.976 201.716 222.988 201.828 222.998 201.938C223.152 203.478 223.232 204.92 223.237 206.266Z" fill="white"/>
<path d="M222.119 196.008C222.007 196.023 221.893 196.038 221.778 196.05C221.464 196.082 221.149 196.099 220.833 196.099C219.489 196.1 218.162 195.801 216.949 195.223C216.879 195.311 216.808 195.4 216.736 195.49C218.012 196.112 219.414 196.434 220.833 196.433C221.17 196.433 221.507 196.415 221.841 196.38C221.955 196.368 222.069 196.353 222.181 196.336C223.107 196.203 224.008 195.931 224.852 195.529C224.78 195.437 224.709 195.346 224.641 195.258C223.842 195.631 222.992 195.883 222.119 196.008Z" fill="white"/>
<path d="M222.962 201.603C222.847 201.61 222.731 201.613 222.616 201.613C222.581 201.615 222.544 201.615 222.509 201.615C221.052 201.615 219.617 201.263 218.326 200.59C217.035 199.917 215.927 198.942 215.095 197.748C215.028 197.847 214.961 197.945 214.896 198.046C215.763 199.253 216.906 200.237 218.23 200.916C219.553 201.595 221.02 201.949 222.509 201.949C222.556 201.949 222.602 201.949 222.649 201.947C222.767 201.946 222.882 201.942 222.998 201.937C224.785 201.846 226.509 201.242 227.962 200.199C227.908 200.1 227.855 200.002 227.8 199.903C226.387 200.928 224.706 201.518 222.962 201.603Z" fill="white"/>
<path d="M223.237 206.265C223.119 206.275 223.002 206.282 222.885 206.287C222.759 206.292 222.634 206.295 222.508 206.295C220.551 206.293 218.648 205.658 217.082 204.485C215.517 203.312 214.374 201.665 213.825 199.789C213.75 199.924 213.675 200.058 213.603 200.194C214.221 202.065 215.415 203.694 217.013 204.849C218.612 206.005 220.535 206.628 222.508 206.63C222.634 206.63 222.759 206.628 222.883 206.621C223.002 206.618 223.119 206.611 223.237 206.603C225.604 206.418 227.812 205.342 229.415 203.592C229.38 203.469 229.34 203.347 229.299 203.223C227.752 204.986 225.577 206.077 223.237 206.265Z" fill="white"/>
<path d="M192.767 54.0218L192.947 50.604L193.865 54.4037C196.996 55.3455 200.572 55.3093 200.572 55.3093C200.572 55.3093 200.814 47.9051 197.993 45.0247C195.172 42.1443 192.472 42.8131 190.357 44.8786C188.241 46.9441 187.511 49.6243 190.332 52.5046C191.031 53.1711 191.86 53.6874 192.767 54.0218Z" fill="#F0F0F0"/>
<path d="M193.323 50.0621L193.184 49.9201C191.576 48.2616 190.594 46.7018 190.253 45.261C190.248 45.2401 190.244 45.2192 190.238 45.1983L190.336 45.1758L190.43 45.1553C190.782 46.7268 191.923 48.3204 193.325 49.7674C193.37 49.8145 193.415 49.8622 193.462 49.9087C194.061 50.516 194.702 51.096 195.348 51.6364C195.398 51.6786 195.449 51.7209 195.5 51.7632C196.357 52.4721 197.216 53.1101 197.981 53.6463C198.035 53.6845 198.089 53.7219 198.143 53.7587C199.441 54.6609 200.444 55.2533 200.668 55.383C200.694 55.3993 200.71 55.4078 200.713 55.4099L200.665 55.4942V55.4956L200.616 55.5805C200.612 55.5784 200.561 55.55 200.469 55.4947C200.121 55.29 199.185 54.7255 198.017 53.9164C197.964 53.8797 197.91 53.8422 197.856 53.8041C197.235 53.3696 196.554 52.8706 195.866 52.322C195.692 52.1845 195.523 52.0471 195.359 51.9097C195.307 51.8681 195.256 51.8258 195.206 51.7835C194.507 51.1994 193.88 50.6256 193.323 50.0621Z" fill="white"/>
<path d="M198.017 53.9156C198.058 53.8633 198.099 53.8102 198.143 53.7578C198.262 53.6155 198.388 53.4793 198.52 53.3498C199.085 52.7973 199.766 52.3783 200.514 52.1236C200.507 52.0575 200.5 51.9913 200.493 51.9238C199.701 52.1861 198.979 52.6258 198.383 53.2093C198.241 53.3475 198.107 53.4931 197.981 53.6455C197.938 53.6972 197.896 53.7502 197.856 53.8033C197.521 54.2392 197.255 54.7233 197.065 55.239C197.134 55.2481 197.2 55.2572 197.266 55.2663C197.448 54.7816 197.701 54.3265 198.017 53.9156Z" fill="white"/>
<path d="M195.359 51.9091C195.405 51.8589 195.452 51.81 195.5 51.7626C195.514 51.7475 195.53 51.7323 195.545 51.7179C196.157 51.12 196.905 50.6789 197.725 50.432C198.545 50.1852 199.413 50.14 200.254 50.3003C200.242 50.2313 200.229 50.1623 200.215 50.0934C199.353 49.9416 198.468 49.997 197.631 50.2551C196.795 50.5132 196.033 50.9664 195.407 51.5774C195.387 51.5966 195.368 51.6159 195.349 51.6358C195.3 51.6846 195.253 51.7334 195.206 51.783C194.492 52.5553 194.016 53.5165 193.835 54.5518C193.898 54.5713 193.961 54.5908 194.025 54.6096C194.197 53.599 194.66 52.6605 195.359 51.9091Z" fill="white"/>
<path d="M193.323 50.0613C193.368 50.009 193.415 49.9581 193.462 49.9078C193.513 49.8542 193.564 49.8012 193.617 49.7497C194.441 48.9472 195.503 48.4328 196.644 48.2834C197.785 48.134 198.944 48.3576 199.947 48.9208C199.923 48.833 199.899 48.7458 199.874 48.6593C198.843 48.1265 197.671 47.9315 196.523 48.102C195.375 48.2725 194.31 48.7998 193.479 49.6091C193.427 49.6607 193.374 49.7129 193.325 49.7666C193.277 49.8168 193.23 49.8677 193.184 49.9193C192.265 50.9689 191.78 52.3279 191.826 53.7214C191.892 53.7589 191.959 53.7937 192.027 53.8293C191.952 52.4528 192.417 51.1012 193.323 50.0613Z" fill="white"/>
<path d="M62.7122 79.4202L62.8921 76.0024L63.8103 79.8021C66.9412 80.7439 70.5177 80.7078 70.5177 80.7078C70.5177 80.7078 70.7595 73.3035 67.9385 70.4231C65.1175 67.5428 62.4175 68.2115 60.3019 70.277C58.1864 72.3426 57.4564 75.0227 60.2774 77.9031C60.9767 78.5695 61.8053 79.0858 62.7122 79.4202Z" fill="#F0F0F0"/>
<path d="M63.2675 75.4596L63.1285 75.3176C61.5206 73.659 60.5383 72.0992 60.1972 70.6585C60.1919 70.6376 60.1879 70.6167 60.1826 70.5958L60.2803 70.5732L60.3746 70.5527C60.7267 72.1243 61.8674 73.7178 63.2694 75.1649C63.3142 75.2119 63.3596 75.2597 63.4064 75.3061C64.0053 75.9134 64.6463 76.4934 65.2927 77.0338C65.3423 77.0761 65.3934 77.1184 65.4444 77.1606C66.3012 77.8696 67.1602 78.5076 67.925 79.0438C67.9788 79.0819 68.0334 79.1194 68.0873 79.1561C69.3855 80.0584 70.3884 80.6507 70.6118 80.7804C70.6388 80.7967 70.654 80.8052 70.6575 80.8073L70.6092 80.8916V80.893L70.5602 80.978C70.5567 80.9759 70.5055 80.9475 70.4129 80.8922C70.0649 80.6874 69.1292 80.1229 67.9609 79.3139C67.9084 79.2772 67.8539 79.2397 67.8 79.2016C67.1789 78.7671 66.4987 78.268 65.81 77.7195C65.6368 77.582 65.4677 77.4445 65.3029 77.3071C65.2511 77.2655 65.2001 77.2233 65.1504 77.181C64.4516 76.5969 63.824 76.0231 63.2675 75.4596Z" fill="white"/>
<path d="M67.9611 79.3141C68.002 79.2617 68.0437 79.2086 68.0874 79.1563C68.2061 79.0139 68.3319 78.8777 68.4645 78.7483C69.0289 78.1957 69.7103 77.7767 70.4584 77.522C70.4515 77.4559 70.4446 77.3898 70.4377 77.3223C69.6452 77.5846 68.9232 78.0242 68.3268 78.6077C68.1853 78.7459 68.0512 78.8916 67.9251 79.0439C67.882 79.0956 67.8404 79.1487 67.8001 79.2017C67.4654 79.6376 67.1989 80.1217 67.0098 80.6375C67.0779 80.6466 67.1446 80.6557 67.21 80.6647C67.3924 80.18 67.6454 79.7249 67.9611 79.3141Z" fill="white"/>
<path d="M65.3021 77.3076C65.3479 77.2573 65.3951 77.2085 65.4437 77.161C65.4578 77.1459 65.4733 77.1308 65.488 77.1164C66.1004 76.5185 66.8484 76.0773 67.6685 75.8305C68.4885 75.5836 69.3561 75.5384 70.1974 75.6987C70.1849 75.6298 70.1725 75.5608 70.1586 75.4918C69.2967 75.34 68.411 75.3955 67.5748 75.6535C66.7387 75.9116 65.9761 76.3649 65.3504 76.9758C65.3307 76.9951 65.3109 77.0143 65.2919 77.0342C65.2433 77.0831 65.1961 77.1319 65.1496 77.1814C64.4357 77.9537 63.9596 78.915 63.7783 79.9503C63.8415 79.9697 63.9046 79.9892 63.9684 80.008C64.1403 78.9975 64.6038 78.059 65.3021 77.3076Z" fill="white"/>
<path d="M63.2675 75.4607C63.3127 75.4084 63.3592 75.3575 63.4064 75.3073C63.4572 75.2536 63.5086 75.2006 63.5614 75.1491C64.3851 74.3467 65.4471 73.8322 66.5881 73.6828C67.7292 73.5334 68.8881 73.757 69.8912 74.3203C69.8672 74.2324 69.8438 74.1452 69.8183 74.0587C68.7877 73.5259 67.6151 73.3309 66.4672 73.5014C65.3193 73.6719 64.2543 74.1993 63.4237 75.0085C63.3709 75.0601 63.3188 75.1123 63.2694 75.166C63.2208 75.2162 63.1743 75.2671 63.1285 75.3187C62.2093 76.3683 61.7239 77.7274 61.7707 79.1208C61.8364 79.1583 61.9035 79.1932 61.9714 79.2287C61.8963 77.8522 62.3612 76.5006 63.2675 75.4607Z" fill="white"/>
<path d="M84.427 36.0569L84.6069 32.6392L85.5251 36.4388C88.656 37.3806 92.2325 37.3445 92.2325 37.3445C92.2325 37.3445 92.4743 29.9402 89.6533 27.0599C86.8323 24.1795 84.1323 24.8482 82.0167 26.9138C79.9012 28.9793 79.1712 31.6594 81.9922 34.5398C82.6915 35.2062 83.5202 35.7225 84.427 36.0569Z" fill="#F0F0F0"/>
<path d="M84.9833 32.0973L84.8443 31.9553C83.2364 30.2967 82.2541 28.7369 81.9131 27.2962C81.9077 27.2753 81.9038 27.2544 81.8984 27.2335L81.9962 27.2109L82.0904 27.1904C82.4425 28.762 83.5832 30.3555 84.9852 31.8025C85.03 31.8496 85.0754 31.8974 85.1222 31.9438C85.7212 32.5511 86.3622 33.1311 87.0085 33.6715C87.0582 33.7138 87.1092 33.7561 87.1603 33.7983C88.0171 34.5073 88.876 35.1453 89.6408 35.6815C89.6947 35.7196 89.7492 35.7571 89.8031 35.7938C91.1013 36.696 92.1042 37.2884 92.3277 37.4181C92.3546 37.4344 92.3698 37.4429 92.3733 37.445L92.325 37.5293V37.5307L92.276 37.6157C92.2726 37.6135 92.2214 37.5852 92.1287 37.5299C91.7808 37.3251 90.8451 36.7606 89.6768 35.9516C89.6243 35.9149 89.5697 35.8774 89.5158 35.8393C88.8947 35.4048 88.2145 34.9057 87.5258 34.3572C87.3526 34.2197 87.1835 34.0822 87.0187 33.9448C86.9669 33.9032 86.9159 33.861 86.8662 33.8187C86.1674 33.2346 85.5398 32.6608 84.9833 32.0973Z" fill="white"/>
<path d="M89.6759 35.9508C89.7169 35.8984 89.7585 35.8453 89.8023 35.793C89.9209 35.6507 90.0468 35.5145 90.1794 35.385C90.7438 34.8325 91.4251 34.4134 92.1732 34.1587C92.1663 34.0926 92.1594 34.0265 92.1525 33.959C91.36 34.2213 90.638 34.6609 90.0417 35.2444C89.9002 35.3826 89.7661 35.5283 89.6399 35.6806C89.5969 35.7323 89.5552 35.7854 89.5149 35.8384C89.1802 36.2743 88.9137 36.7584 88.7246 37.2742C88.7927 37.2833 88.8595 37.2924 88.9248 37.3014C89.1072 36.8167 89.3603 36.3616 89.6759 35.9508Z" fill="white"/>
<path d="M87.0179 33.9443C87.0637 33.894 87.1109 33.8452 87.1595 33.7978C87.1736 33.7826 87.1891 33.7675 87.2039 33.7531C87.8162 33.1552 88.5643 32.714 89.3843 32.4672C90.2043 32.2203 91.0719 32.1751 91.9132 32.3354C91.9007 32.2665 91.8883 32.1975 91.8744 32.1285C91.0125 31.9767 90.1268 32.0322 89.2907 32.2903C88.4545 32.5483 87.692 33.0016 87.0662 33.6125C87.0465 33.6318 87.0268 33.651 87.0077 33.671C86.9592 33.7198 86.912 33.7686 86.8655 33.8181C86.1515 34.5904 85.6754 35.5517 85.4941 36.587C85.5573 36.6064 85.6204 36.6259 85.6843 36.6447C85.8562 35.6342 86.3197 34.6957 87.0179 33.9443Z" fill="white"/>
<path d="M84.9824 32.0974C85.0275 32.0451 85.0741 31.9942 85.1213 31.944C85.172 31.8903 85.2234 31.8374 85.2762 31.7858C86.1 30.9834 87.1619 30.4689 88.303 30.3195C89.4441 30.1701 90.6029 30.3938 91.6061 30.957C91.582 30.8691 91.5586 30.7819 91.5331 30.6955C90.5025 30.1626 89.33 29.9676 88.182 30.1381C87.0341 30.3086 85.9692 30.836 85.1385 31.6452C85.0857 31.6968 85.0336 31.749 84.9843 31.8027C84.9357 31.8529 84.8892 31.9038 84.8433 31.9555C83.9241 33.005 83.4388 34.3641 83.4855 35.7575C83.5512 35.7951 83.6184 35.8299 83.6862 35.8654C83.6111 34.4889 84.076 33.1374 84.9824 32.0974Z" fill="white"/>
<path d="M34.9542 191.564L27.525 198.393L33.4292 188.502C28.7776 180.08 21.1699 172.801 21.1699 172.801C21.1699 172.801 5.38672 187.899 5.38672 199.767C5.38672 211.635 12.4531 215.779 21.1699 215.779C29.8867 215.779 36.953 211.635 36.953 199.767C36.953 197.125 36.17 194.324 34.9542 191.564Z" fill="#F0F0F0"/>
<path d="M25.6136 198.763V199.348C25.5788 206.148 24.4302 211.453 22.1765 215.189C22.1446 215.244 22.1098 215.296 22.0779 215.351L21.8255 215.198L21.5848 215.047C24.085 211.013 24.9697 205.311 25.0016 199.38C25.0045 199.189 25.0074 198.994 25.0045 198.8C24.9958 196.29 24.8421 193.75 24.5955 191.282C24.5781 191.091 24.5578 190.897 24.5375 190.703C24.1953 187.448 23.7022 184.338 23.1975 181.636C23.1627 181.445 23.125 181.253 23.0873 181.065C22.2142 176.495 21.3237 173.185 21.1207 172.452C21.0975 172.363 21.083 172.313 21.0801 172.302L21.3556 172.224L21.3585 172.221L21.637 172.143C21.6399 172.154 21.6892 172.319 21.7704 172.626C22.0808 173.773 22.8871 176.886 23.679 180.993C23.7138 181.178 23.7515 181.369 23.7863 181.56C24.1982 183.753 24.6013 186.203 24.9204 188.774C25.0016 189.42 25.0741 190.057 25.1379 190.686C25.1611 190.88 25.1814 191.074 25.1988 191.265C25.4657 193.932 25.6039 196.432 25.6136 198.763Z" fill="white"/>
<path d="M23.6787 180.992C23.4844 181.018 23.2871 181.044 23.087 181.064C22.5435 181.12 21.9975 181.148 21.4511 181.148C19.1226 181.151 16.823 180.633 14.7219 179.631C14.6001 179.784 14.4782 179.938 14.3535 180.094C16.5638 181.171 18.9915 181.73 21.4511 181.728C22.0344 181.727 22.6172 181.696 23.1972 181.635C23.3945 181.615 23.5917 181.589 23.786 181.56C25.3902 181.33 26.95 180.858 28.4123 180.161C28.2876 180.002 28.1658 179.845 28.0469 179.692C26.6629 180.338 25.1909 180.776 23.6787 180.992Z" fill="white"/>
<path d="M25.1388 190.686C24.9387 190.698 24.7385 190.703 24.5384 190.703C24.4775 190.706 24.4137 190.706 24.3528 190.706C21.8297 190.706 19.344 190.097 17.1076 188.931C14.8713 187.764 12.9505 186.075 11.5092 184.008C11.3932 184.179 11.2772 184.35 11.1641 184.523C12.6664 186.615 14.6463 188.32 16.9398 189.496C19.2333 190.672 21.7745 191.285 24.3528 191.286C24.434 191.286 24.5152 191.286 24.5964 191.283C24.7994 191.28 24.9996 191.274 25.1997 191.265C28.2966 191.107 31.2823 190.061 33.7998 188.253C33.7069 188.083 33.6141 187.912 33.5184 187.741C31.0717 189.516 28.1595 190.539 25.1388 190.686Z" fill="white"/>
<path d="M25.6135 198.762C25.4104 198.78 25.2074 198.791 25.0043 198.8C24.7868 198.808 24.5693 198.814 24.3517 198.814C20.9614 198.81 17.6635 197.71 14.9518 195.678C12.2402 193.646 10.2606 190.792 9.3096 187.543C9.17908 187.778 9.04855 188.009 8.92383 188.244C9.9954 191.485 12.0628 194.308 14.8324 196.309C17.6019 198.311 20.9328 199.39 24.3517 199.393C24.5693 199.393 24.7868 199.391 25.0014 199.379C25.2074 199.373 25.4104 199.362 25.6135 199.347C29.7145 199.027 33.5404 197.162 36.3164 194.131C36.2555 193.917 36.1859 193.706 36.1163 193.491C33.435 196.545 29.6676 198.436 25.6135 198.762Z" fill="white"/>
<path d="M225.764 133.498C236.53 124.092 241.279 111.927 236.371 106.327C231.464 100.727 218.757 103.813 207.991 113.219C197.225 122.625 192.476 134.79 197.383 140.39C202.291 145.99 214.997 142.904 225.764 133.498Z" fill="#E4E4E4"/>
<path d="M66.681 140.389C71.5888 134.789 66.8395 122.624 56.0733 113.218C45.3071 103.812 32.6008 100.727 27.693 106.327C22.7852 111.927 27.5344 124.092 38.3006 133.498C49.0669 142.904 61.7732 145.989 66.681 140.389Z" fill="#E4E4E4"/>
<path d="M90.9287 215.506C105.235 215.506 116.832 209.473 116.832 202.032C116.832 194.591 105.235 188.559 90.9287 188.559C76.6227 188.559 65.0254 194.591 65.0254 202.032C65.0254 209.473 76.6227 215.506 90.9287 215.506Z" fill="#E4E4E4"/>
<path d="M173.136 215.506C187.442 215.506 199.039 209.473 199.039 202.032C199.039 194.591 187.442 188.559 173.136 188.559C158.83 188.559 147.232 194.591 147.232 202.032C147.232 209.473 158.83 215.506 173.136 215.506Z" fill="#E4E4E4"/>
<path d="M132.032 196.922C96.9661 196.922 68.4375 168.438 68.4375 133.426C68.4375 98.4138 96.9661 69.9297 132.032 69.9297C167.099 69.9297 195.627 98.4138 195.627 133.426C195.627 168.438 167.099 196.922 132.032 196.922ZM132.032 70.5492C97.3082 70.5492 69.0579 98.7555 69.0579 133.426C69.0579 168.096 97.3082 196.302 132.032 196.302C166.757 196.302 195.007 168.096 195.007 133.426C195.007 98.7555 166.757 70.5492 132.032 70.5492Z" fill="#BDBDBD"/>
<path d="M116.53 175.716C103.7 171.309 92.9108 162.399 86.1673 150.644C79.4238 138.89 77.1854 125.09 79.8683 111.811C76.309 118.931 74.3139 126.729 74.0165 134.681C73.7191 142.634 75.1264 150.559 78.144 157.924C81.1617 165.29 85.7202 171.928 91.5144 177.392C97.3087 182.857 104.205 187.023 111.742 189.612C119.279 192.201 127.283 193.152 135.219 192.403C143.154 191.654 150.837 189.221 157.755 185.268C164.672 181.315 170.664 175.932 175.33 169.479C179.996 163.027 183.227 155.654 184.809 147.854C178.742 159.971 168.474 169.476 155.915 174.6C143.356 179.725 129.36 180.122 116.53 175.716Z" fill="#F0F0F0"/>
<path d="M113.302 128.365C110.083 128.365 107.464 124.963 107.464 120.78C107.464 116.597 110.083 113.194 113.302 113.194C116.521 113.194 119.141 116.597 119.141 120.78C119.141 124.963 116.521 128.365 113.302 128.365Z" fill="#3F3D56"/>
<path d="M148.667 128.365C145.448 128.365 142.829 124.963 142.829 120.78C142.829 116.597 145.448 113.194 148.667 113.194C151.887 113.194 154.506 116.597 154.506 120.78C154.506 124.963 151.887 128.365 148.667 128.365Z" fill="#3F3D56"/>
<path d="M128 12.0082C131.084 12.0082 133.584 10.2055 133.584 7.98166C133.584 5.75784 131.084 3.95508 128 3.95508C124.916 3.95508 122.416 5.75784 122.416 7.98166C122.416 10.2055 124.916 12.0082 128 12.0082Z" fill="#2F2E41"/>
<path d="M127.999 5.79637C129.884 5.79637 131.412 4.69469 131.412 3.33569C131.412 1.97669 129.884 0.875 127.999 0.875C126.115 0.875 124.587 1.97669 124.587 3.33569C124.587 4.69469 126.115 5.79637 127.999 5.79637Z" fill="#2F2E41"/>
<path d="M123.984 9.5903C122.063 7.67251 121.456 5.08682 122.414 3.42285C122.186 3.5524 121.976 3.71145 121.791 3.89586C120.216 5.46833 120.707 8.50815 122.887 10.6854C125.068 12.8627 128.113 13.3529 129.687 11.7805C129.872 11.5949 130.031 11.3857 130.161 11.1584C128.495 12.115 125.905 11.5081 123.984 9.5903Z" fill="#2F2E41"/>
<path d="M70.5198 109.255L68.5586 106.002L80.1937 96.9004L83.0883 101.702L70.5198 109.255Z" fill="#FFB6B6"/>
<path d="M67.8623 111.983L61.5381 101.493L61.671 101.413C62.7556 100.761 64.055 100.566 65.2836 100.871C66.5121 101.176 67.5691 101.955 68.222 103.038L68.2222 103.039L72.0848 109.446L67.8623 111.983Z" fill="#2F2E41"/>
<path d="M193.096 104.92L195.057 101.666L183.422 92.5645L180.527 97.366L193.096 104.92Z" fill="#FFB6B6"/>
<path d="M191.531 105.11L195.394 98.7026L195.394 98.7023C196.047 97.6195 197.104 96.84 198.332 96.5352C199.561 96.2304 200.86 96.4253 201.945 97.0771L202.078 97.157L195.754 107.647L191.531 105.11Z" fill="#2F2E41"/>
<path d="M117.055 61.501L116.314 64.4546L96.327 80.4306L74.8164 100.502L77.1235 105.858L128.396 71.5956L186.199 101.512L188.782 95.6067L162.404 77.9527L140.589 62.9329L117.055 61.501Z" fill="#2F2E41"/>
<path d="M123.786 29.9004L115.146 32.7304L116.314 64.1504C116.314 64.1504 131.339 73.1572 140.589 62.9334V31.5067L135.43 29.9004H123.786Z" fill="url(#paint0_linear_115_26656)"/>
<path d="M138.672 33.6661L140.589 31.5059C140.589 31.5059 145.92 33.4502 145.476 39.2852C145.031 45.1202 141.898 63.6787 141.898 63.6787L141.308 75.7842H135.743L137.961 44.478L138.672 33.6661Z" fill="url(#paint1_linear_115_26656)"/>
<path d="M117.577 34.5957L115.659 32.4355C115.659 32.4355 110.328 34.3799 110.772 40.2149C111.217 46.0499 114.35 64.6084 114.35 64.6084L114.94 76.7139H120.505L118.287 45.4077L117.577 34.5957Z" fill="url(#paint2_linear_115_26656)"/>
<path d="M117.762 81.699C119.647 81.699 121.174 80.1736 121.174 78.2919C121.174 76.4102 119.647 74.8848 117.762 74.8848C115.877 74.8848 114.35 76.4102 114.35 78.2919C114.35 80.1736 115.877 81.699 117.762 81.699Z" fill="#FFB6B6"/>
<path d="M138.547 81.699C140.432 81.699 141.96 80.1736 141.96 78.2919C141.96 76.4102 140.432 74.8848 138.547 74.8848C136.663 74.8848 135.135 76.4102 135.135 78.2919C135.135 80.1736 136.663 81.699 138.547 81.699Z" fill="#FFB6B6"/>
<path d="M127.855 27.3202C133.074 27.3202 137.306 23.0955 137.306 17.8842C137.306 12.6729 133.074 8.44824 127.855 8.44824C122.635 8.44824 118.404 12.6729 118.404 17.8842C118.404 23.0955 122.635 27.3202 127.855 27.3202Z" fill="#2F2E41"/>
<path d="M128.14 27.6309C132.348 27.6309 135.759 24.225 135.759 20.0235C135.759 15.822 132.348 12.416 128.14 12.416C123.932 12.416 120.521 15.822 120.521 20.0235C120.521 24.225 123.932 27.6309 128.14 27.6309Z" fill="#FFB6B6"/>
<path d="M120.134 15.2388C121.875 16.437 123.941 17.0746 126.056 17.0662C125.302 17.5884 124.443 17.9411 123.539 18.1001C126.351 18.7023 129.256 18.7186 132.074 18.148C132.701 18.0477 133.305 17.8404 133.861 17.5353C134.138 17.3808 134.38 17.1698 134.57 16.9161C134.76 16.6624 134.894 16.3715 134.964 16.0625C135.151 14.9944 134.318 14.024 133.452 13.37C132.125 12.3839 130.596 11.7046 128.974 11.381C127.353 11.0575 125.679 11.0979 124.075 11.4993C123.028 11.7696 121.979 12.2263 121.298 13.0661C120.618 13.9059 120.417 15.2007 121.065 16.0655L120.134 15.2388Z" fill="#2F2E41"/>
<path d="M254.69 216.125H0.310219C0.227944 216.125 0.149038 216.093 0.0908608 216.035C0.0326835 215.977 0 215.898 0 215.816C0 215.733 0.0326835 215.655 0.0908608 215.597C0.149038 215.538 0.227944 215.506 0.310219 215.506H254.69C254.772 215.506 254.851 215.538 254.909 215.597C254.967 215.655 255 215.733 255 215.816C255 215.898 254.967 215.977 254.909 216.035C254.851 216.093 254.772 216.125 254.69 216.125Z" fill="#BDBDBD"/>
<path d="M122.416 158.204C122.416 160.504 123.331 162.71 124.96 164.337C126.589 165.963 128.798 166.877 131.102 166.877C133.406 166.877 135.615 165.963 137.244 164.337C138.873 162.71 139.788 160.504 139.788 158.204H122.416Z" fill="#3F3D56"/>
<path d="M163.092 147.363C167.204 147.363 170.537 144.035 170.537 139.93C170.537 135.824 167.204 132.496 163.092 132.496C158.98 132.496 155.646 135.824 155.646 139.93C155.646 144.035 158.98 147.363 163.092 147.363Z" fill="#F0F0F0"/>
<path d="M98.8769 147.363C102.989 147.363 106.322 144.035 106.322 139.93C106.322 135.824 102.989 132.496 98.8769 132.496C94.765 132.496 91.4316 135.824 91.4316 139.93C91.4316 144.035 94.765 147.363 98.8769 147.363Z" fill="#F0F0F0"/>
</g>
<defs>
<linearGradient id="paint0_linear_115_26656" x1="140.589" y1="67.8158" x2="108.967" y2="61.6632" gradientUnits="userSpaceOnUse">
<stop stop-color="#023E5E"/>
<stop offset="1" stop-color="#557E93"/>
</linearGradient>
<linearGradient id="paint1_linear_115_26656" x1="145.502" y1="75.7842" x2="132.965" y2="74.983" gradientUnits="userSpaceOnUse">
<stop stop-color="#023E5E"/>
<stop offset="1" stop-color="#557E93"/>
</linearGradient>
<linearGradient id="paint2_linear_115_26656" x1="120.505" y1="76.7139" x2="107.968" y2="75.9127" gradientUnits="userSpaceOnUse">
<stop stop-color="#023E5E"/>
<stop offset="1" stop-color="#557E93"/>
</linearGradient>
<clipPath id="clip0_115_26656">
<rect width="255" height="215.25" fill="white" transform="translate(0 0.875)"/>
</clipPath>
</defs>
</svg>
