<svg width="378" height="200" viewBox="0 0 378 200" fill="none" xmlns="http://www.w3.org/2000/svg">
<g clip-path="url(#clip0_1538_20575)">
<path d="M275.018 96.5275C275.018 99.3378 274.9 102.12 274.663 104.873C274.477 107.022 274.224 109.152 273.902 111.263C273.56 113.498 273.141 115.706 272.645 117.887V117.889C272.321 119.325 271.965 120.748 271.577 122.16C270.452 126.264 269.052 130.289 267.388 134.206C267.026 135.058 266.652 135.904 266.267 136.745C264.808 139.928 263.176 143.027 261.376 146.03C256.328 154.463 250.028 162.079 242.69 168.616C241.896 169.323 241.091 170.017 240.275 170.7C222.95 185.176 201.083 193.09 178.509 193.055C125.208 193.055 82 149.839 82 96.5275C82 43.2162 125.208 0.000119556 178.509 0.000119556C200.306 -0.034256 221.467 7.34522 238.518 20.9269C239.317 21.5604 240.106 22.2081 240.885 22.8701C244.687 26.0951 248.236 29.6079 251.499 33.3775H251.501C266.7 50.9008 275.052 73.3293 275.018 96.5275Z" fill="#F2F2F2"/>
<path d="M110.489 113.201C101.296 107.729 94.3566 97.5006 95.2574 86.8379C103.663 94.884 114.642 99.6972 126.254 100.426C130.733 100.691 135.743 100.519 139.04 103.563C141.092 105.456 142.047 108.308 142.203 111.096C142.36 113.884 141.801 116.657 141.246 119.394L141.437 120.064C130.738 120.104 119.683 118.674 110.489 113.201Z" fill="#E6E6E6"/>
<path d="M95.4819 86.826C99.1655 94.8806 105.293 101.569 112.994 105.943C114.649 106.869 116.409 107.666 118.28 108.035C120.106 108.381 121.991 108.231 123.739 107.602C125.382 107.048 126.997 106.291 128.745 106.146C130.588 105.994 132.294 106.705 133.634 107.95C135.274 109.474 136.269 111.496 137.173 113.508C138.177 115.741 139.184 118.077 141.108 119.683C141.342 119.877 141.026 120.228 140.793 120.033C137.445 117.239 136.899 112.56 134.222 109.269C132.973 107.733 131.254 106.565 129.212 106.595C127.426 106.622 125.759 107.401 124.101 107.977C122.36 108.581 120.617 108.864 118.779 108.599C116.899 108.327 115.104 107.598 113.432 106.717C109.655 104.693 106.221 102.086 103.254 98.9945C99.8479 95.4845 97.0674 91.4176 95.0327 86.9698C94.9069 86.6945 95.3569 86.5525 95.4819 86.826H95.4819Z" fill="white"/>
<path d="M110.431 104.681C109.522 105.874 108.218 106.704 106.754 107.025C105.289 107.345 103.758 107.134 102.434 106.43C102.167 106.286 102.377 105.864 102.645 106.007C103.876 106.666 105.302 106.862 106.666 106.561C108.029 106.26 109.24 105.481 110.08 104.366C110.263 104.123 110.612 104.44 110.431 104.681L110.431 104.681Z" fill="white"/>
<path d="M122.945 107.993C122.562 104.951 121.047 102.166 118.702 100.191C118.469 99.9959 118.785 99.6453 119.017 99.8405C121.454 101.899 123.024 104.802 123.416 107.968C123.453 108.27 122.981 108.293 122.945 107.993V107.993Z" fill="white"/>
<path d="M100.433 95.2634C100.881 94.8753 101.225 94.3819 101.436 93.8277C101.646 93.2735 101.715 92.6758 101.637 92.0882C101.596 91.787 102.067 91.7638 102.108 92.063C102.191 92.7126 102.114 93.3727 101.883 93.9855C101.652 94.5983 101.275 95.1453 100.784 95.5787C100.741 95.6234 100.683 95.6501 100.621 95.6534C100.559 95.6568 100.498 95.6364 100.451 95.5965C100.405 95.5545 100.377 95.496 100.373 95.4336C100.37 95.3713 100.391 95.3101 100.433 95.2635V95.2634Z" fill="white"/>
<path d="M125.017 66.1802C125.048 66.3675 125.079 66.5548 125.113 66.744C125.541 69.2604 126.173 71.7379 127.002 74.1521C127.064 74.3397 127.128 74.529 127.195 74.7145C129.255 80.5094 132.372 85.8714 136.389 90.528C137.989 92.3794 139.728 94.1065 141.59 95.6941C144.162 97.8866 147.125 100.059 148.774 102.89C148.949 103.183 149.106 103.487 149.244 103.8L142.241 119.779C142.206 119.807 142.176 119.837 142.142 119.865L141.891 120.516C141.789 120.441 141.685 120.361 141.584 120.286C141.525 120.242 141.467 120.195 141.408 120.152C141.369 120.122 141.33 120.092 141.293 120.067C141.28 120.057 141.267 120.047 141.258 120.038C141.221 120.014 141.189 119.987 141.156 119.963C140.574 119.517 139.994 119.066 139.416 118.609C139.412 118.608 139.412 118.608 139.41 118.603C135.016 115.116 130.874 111.231 127.453 106.841C127.351 106.709 127.244 106.575 127.144 106.436C125.613 104.449 124.248 102.34 123.06 100.13C122.414 98.9176 121.829 97.6735 121.309 96.4022C119.97 93.1149 119.157 89.6374 118.899 86.0973C118.386 79.0401 120.135 71.8972 124.667 66.5828C124.783 66.4469 124.897 66.3144 125.017 66.1802Z" fill="#E6E6E6"/>
<path d="M125.203 66.305C123.296 74.9543 124.162 83.9848 127.678 92.1139C128.442 93.8508 129.368 95.5463 130.64 96.9675C131.889 98.3432 133.484 99.3591 135.259 99.9097C136.904 100.456 138.649 100.825 140.133 101.762C141.696 102.75 142.63 104.345 142.95 106.146C143.343 108.35 142.919 110.564 142.43 112.714C141.888 115.102 141.286 117.574 141.856 120.015C141.925 120.311 141.462 120.4 141.393 120.105C140.401 115.858 142.782 111.792 142.626 107.553C142.553 105.575 141.884 103.607 140.235 102.401C138.793 101.347 136.993 100.966 135.323 100.427C133.569 99.8607 132.006 99.0371 130.699 97.7182C129.361 96.369 128.367 94.7061 127.562 92.9963C125.765 89.1055 124.592 84.9564 124.084 80.7009C123.477 75.8474 123.706 70.9259 124.758 66.1493C124.824 65.8537 125.268 66.0113 125.203 66.305Z" fill="white"/>
<path d="M126.393 89.5633C124.949 89.9682 123.408 89.8467 122.046 89.2203C120.683 88.594 119.588 87.5037 118.955 86.1442C118.828 85.8687 119.25 85.6582 119.378 85.9341C119.964 87.2012 120.985 88.2167 122.255 88.7973C123.525 89.3779 124.96 89.4854 126.302 89.1004C126.594 89.0171 126.683 89.4804 126.393 89.5633H126.393Z" fill="white"/>
<path d="M134.389 99.7428C135.914 97.0839 136.382 93.9475 135.698 90.9591C135.63 90.6631 136.093 90.5732 136.161 90.8688C136.867 93.9799 136.374 97.2428 134.78 100.006C134.628 100.27 134.237 100.005 134.389 99.7428Z" fill="white"/>
<path d="M124.078 76.0228C124.67 75.9825 125.242 75.796 125.743 75.48C126.245 75.164 126.66 74.7284 126.951 74.2124C127.1 73.9473 127.49 74.2125 127.342 74.4758C127.018 75.0445 126.559 75.525 126.005 75.8754C125.452 76.2257 124.821 76.4353 124.168 76.4857C124.107 76.4956 124.045 76.4818 123.993 76.4472C123.942 76.4126 123.906 76.3598 123.892 76.2994C123.88 76.238 123.893 76.1746 123.928 76.1228C123.963 76.071 124.017 76.035 124.078 76.0228V76.0228Z" fill="white"/>
<path d="M148.852 22.3724L160.665 160.676L137.04 162.453V24.1321C139.855 22.269 143.896 21.9775 148.852 22.3724Z" fill="#CCCCCC"/>
<path d="M207.16 22.3724L195.348 160.676L218.972 162.453V24.1321C216.157 22.269 212.116 21.9775 207.16 22.3724Z" fill="#CCCCCC"/>
<path d="M215.435 168.169H140.326C139.121 168.167 137.967 167.688 137.115 166.836C136.264 165.985 135.785 164.83 135.783 163.625V26.1617C135.785 24.9571 136.264 23.8022 137.115 22.9504C137.967 22.0987 139.121 21.6195 140.326 21.6182H215.435C216.639 21.6195 217.794 22.0987 218.645 22.9504C219.497 23.8022 219.976 24.9571 219.977 26.1617V163.625C219.976 164.83 219.497 165.985 218.645 166.836C217.794 167.688 216.639 168.167 215.435 168.169ZM140.326 23.1264C139.521 23.1273 138.75 23.4474 138.181 24.0164C137.612 24.5854 137.292 25.3569 137.291 26.1617V163.625C137.292 164.43 137.612 165.201 138.181 165.77C138.75 166.34 139.521 166.66 140.326 166.661H215.435C216.239 166.66 217.01 166.34 217.579 165.77C218.148 165.201 218.468 164.43 218.469 163.625V26.1617C218.468 25.3569 218.148 24.5854 217.579 24.0164C217.01 23.4474 216.239 23.1273 215.435 23.1264L140.326 23.1264Z" fill="#CCCCCC"/>
<path d="M219.223 44.4932H136.537V46.0014H219.223V44.4932Z" fill="#CCCCCC"/>
<path d="M219.223 69.6304H136.537V71.1386H219.223V69.6304Z" fill="#CCCCCC"/>
<path d="M163.371 22.3721H161.862V90.997H163.371V22.3721Z" fill="#CCCCCC"/>
<path d="M193.9 22.3721H192.392V90.997H193.9V22.3721Z" fill="#CCCCCC"/>
<path d="M228.649 172.316H129.627C127.827 172.316 126.101 171.601 124.828 170.328C123.556 169.056 122.841 167.329 122.841 165.529C122.841 163.729 123.556 162.003 124.828 160.73C126.101 159.457 127.827 158.742 129.627 158.742H228.649C230.448 158.742 232.174 159.457 233.447 160.73C234.72 162.003 235.435 163.729 235.435 165.529C235.435 167.329 234.72 169.056 233.447 170.328C232.174 171.601 230.448 172.316 228.649 172.316Z" fill="#CCCCCC"/>
<path d="M219.223 87.478H137.04V92.5055H219.223V87.478Z" fill="#CCCCCC"/>
<path d="M163.604 103.478L163.499 103.428C157.897 100.721 150.56 100.723 139.711 103.436L139.595 103.465L139.56 103.351C138.412 99.5869 137.112 95.3236 139.555 93.2261C139.589 87.0711 144.987 82.0732 151.617 82.0732C158.246 82.0732 163.643 87.0686 163.679 93.2219C167.313 96.0005 165.581 100.107 163.662 103.378L163.604 103.478Z" fill="#2F2E41"/>
<path d="M198.039 90.2985C197.938 90.7972 197.73 91.2679 197.428 91.6773C197.126 92.0867 196.738 92.4249 196.291 92.6681C195.844 92.9113 195.349 93.0535 194.842 93.0848C194.334 93.1161 193.826 93.0356 193.352 92.8491L173.554 112.749L171.787 106.57L191.451 88.0903C191.817 87.3159 192.454 86.7026 193.242 86.3667C194.03 86.0308 194.913 85.9956 195.725 86.2678C196.537 86.54 197.221 87.1006 197.648 87.8435C198.074 88.5864 198.213 89.4599 198.039 90.2985L198.039 90.2985Z" fill="#FFB6B6"/>
<path d="M149.106 109.456C149.106 109.456 147.31 113.527 151.742 116.038C156.174 118.549 171.665 115.08 174.179 114.596C176.692 114.111 186.08 100.059 186.08 100.059L184.753 93.168L172.302 103.978L149.106 109.456Z" fill="url(#paint0_linear_1538_20575)"/>
<path d="M145.837 131.971L146.088 136.747C146.088 136.747 145.346 140.978 145.957 141.891C146.562 142.799 163.085 142.914 163.085 142.914C163.085 142.914 164.176 137.028 165.117 131.875L145.837 131.971Z" fill="#FFB6B6"/>
<path d="M193.34 195.121L196.795 194.423L195.806 180.469L190.708 181.499L193.34 195.121Z" fill="#FFB6B6"/>
<path d="M198.289 176.961L201.5 175.517L197.334 162.165L192.595 164.297L198.289 176.961Z" fill="#FFB6B6"/>
<path d="M201.085 169.438L195.039 172.862L180.127 148.896C169.659 155.95 159.423 159.328 149.104 161.13C145.615 161.752 142.058 161.437 141.388 157.885C141.357 157.719 141.332 157.552 141.313 157.384C140.901 153.505 145.726 148.532 146.339 143.786L159.544 142.993L161.172 145.081L176.443 135.691C179.514 133.802 183.553 134.824 185.465 137.972C185.566 138.138 185.659 138.309 185.746 138.483L201.085 169.438Z" fill="#2F2E41"/>
<path d="M197.385 185.561L190.466 186.204L177.922 160.543C165.482 162.683 153.747 163.369 143.596 160.78C140.159 159.916 138.058 156.366 138.904 152.852C138.943 152.688 138.989 152.526 139.041 152.365C140.256 148.658 143.436 146.035 145.941 141.957L164.242 142.235L162.198 149.289L179.976 146.988C183.551 146.525 186.816 149.114 187.269 152.769C187.292 152.962 187.308 153.156 187.315 153.351L197.385 185.561Z" fill="#2F2E41"/>
<path d="M152.982 99.8299C157.086 99.8299 160.413 96.5023 160.413 92.3974C160.413 88.2925 157.086 84.9648 152.982 84.9648C148.878 84.9648 145.551 88.2925 145.551 92.3974C145.551 96.5023 148.878 99.8299 152.982 99.8299Z" fill="#FFB6B6"/>
<path d="M148.626 102.513L155.439 103.314C155.727 103.348 155.996 103.471 156.211 103.665C156.425 103.86 156.573 104.116 156.635 104.399L157.719 109.358L164.474 117.314C164.474 117.314 166.899 121.863 165.99 127.018C165.08 132.174 164.68 136.004 164.68 136.004C164.68 136.004 146.561 142.799 145.954 141.89C145.348 140.98 145.151 136.847 145.151 136.847L142.726 109.858C142.726 109.858 145.454 105.309 146.97 105.309C147.949 105.276 147.823 103.073 148.626 102.513Z" fill="url(#paint1_linear_1538_20575)"/>
<path d="M164.865 137.664C165.821 137.664 166.596 136.735 166.596 135.588C166.596 134.441 165.821 133.511 164.865 133.511C163.909 133.511 163.135 134.441 163.135 135.588C163.135 136.735 163.909 137.664 164.865 137.664Z" fill="url(#paint2_linear_1538_20575)"/>
<path d="M191.627 191.528L196.893 188.889L197.886 191.205L204.545 192.551C204.874 192.617 205.173 192.787 205.398 193.036C205.624 193.284 205.764 193.598 205.799 193.932C205.833 194.266 205.76 194.602 205.59 194.892C205.42 195.181 205.162 195.408 204.853 195.54L198.419 198.299L196.328 196.484L196.877 198.96L194.451 200L191.627 191.528Z" fill="#2F2E41"/>
<path d="M196.781 175.851L202 173.119L203.033 175.417L209.715 176.646C210.045 176.706 210.347 176.871 210.577 177.116C210.807 177.36 210.953 177.672 210.993 178.005C211.033 178.338 210.966 178.675 210.801 178.968C210.636 179.26 210.382 179.492 210.076 179.629L203.691 182.501L201.569 180.722L202.161 183.189L199.754 184.271L196.781 175.851Z" fill="#2F2E41"/>
<path d="M148.736 90.0659C146.773 90.0691 144.857 89.4644 143.251 88.335L143.197 88.2974V88.232C143.199 86.3326 143.955 84.5117 145.298 83.1686C146.64 81.8255 148.461 81.07 150.36 81.0679H153.376C155.275 81.07 157.096 81.8255 158.438 83.1686C159.781 84.5117 160.537 86.3326 160.539 88.232C160.537 88.6667 160.365 89.0835 160.06 89.3936C159.756 89.7036 159.342 89.8824 158.908 89.892L148.906 90.0644C148.849 90.0654 148.793 90.0659 148.736 90.0659Z" fill="#2F2E41"/>
<path d="M161.042 86.8562C162.004 86.3008 162.165 84.7784 161.401 83.4558C160.638 82.1332 159.239 81.5112 158.278 82.0666C157.316 82.622 157.155 84.1444 157.918 85.467C158.682 86.7896 160.081 87.4116 161.042 86.8562Z" fill="#2F2E41"/>
<path d="M146.002 85.3805C147.082 84.3006 147.32 82.7884 146.535 82.003C145.75 81.2176 144.238 81.4563 143.158 82.5363C142.078 83.6162 141.84 85.1284 142.625 85.9138C143.41 86.6992 144.922 86.4605 146.002 85.3805Z" fill="#2F2E41"/>
<path d="M211.769 153.338H204.352C204.184 153.338 204.019 153.374 203.867 153.444C203.715 153.514 203.581 153.617 203.472 153.744C203.199 153.694 202.917 153.709 202.651 153.789C202.384 153.869 202.14 154.011 201.939 154.203C201.738 154.395 201.586 154.632 201.494 154.895C201.402 155.157 201.374 155.438 201.412 155.714C201.45 155.989 201.552 156.252 201.711 156.48C201.87 156.709 202.081 156.896 202.326 157.027C202.572 157.158 202.845 157.229 203.123 157.234C203.401 157.239 203.676 157.178 203.926 157.056L204.541 159.055C204.614 159.292 204.761 159.5 204.961 159.647C205.16 159.794 205.401 159.874 205.649 159.874H210.472C210.72 159.874 210.961 159.794 211.16 159.647C211.36 159.5 211.506 159.292 211.579 159.055L212.877 154.838C212.93 154.665 212.942 154.481 212.912 154.302C212.881 154.124 212.809 153.954 212.701 153.808C212.594 153.663 212.453 153.544 212.291 153.462C212.129 153.38 211.95 153.338 211.769 153.338ZM203.16 156.731C202.826 156.731 202.507 156.599 202.271 156.363C202.035 156.128 201.903 155.808 201.903 155.475C201.903 155.141 202.035 154.822 202.271 154.586C202.507 154.35 202.826 154.218 203.16 154.218C203.182 154.218 203.204 154.223 203.227 154.224C203.177 154.427 203.183 154.639 203.244 154.838L203.775 156.564C203.588 156.672 203.376 156.73 203.16 156.731Z" fill="#3F3D56"/>
<path d="M178.648 147.881C178.141 147.928 177.631 147.863 177.152 147.691C176.673 147.519 176.238 147.245 175.877 146.886C175.516 146.528 175.238 146.095 175.062 145.617C174.886 145.14 174.817 144.63 174.86 144.123L150.12 130.862L155.531 127.397L178.873 140.936C179.719 141.064 180.49 141.499 181.037 142.157C181.585 142.815 181.872 143.652 181.845 144.508C181.817 145.364 181.476 146.181 180.887 146.802C180.298 147.424 179.501 147.808 178.648 147.881Z" fill="#FFB6B6"/>
<path d="M146.259 106.493C146.259 106.493 141.844 105.94 140.711 110.908C139.578 115.875 147.345 129.722 148.53 131.991C149.715 134.261 165.867 139.224 165.867 139.224L172.087 135.975L158.161 127.147L146.259 106.493Z" fill="url(#paint3_linear_1538_20575)"/>
<path d="M177.378 85.9697H178.886C179.619 85.9697 180.322 86.2611 180.841 86.7796C181.359 87.2982 181.65 88.0015 181.65 88.7348H174.613C174.613 88.0015 174.905 87.2982 175.423 86.7796C175.941 86.2611 176.645 85.9697 177.378 85.9697Z" fill="#CCCCCC"/>
<path d="M129.561 34.3793C137.812 34.3793 144.501 27.6895 144.501 19.4372C144.501 11.1849 137.812 4.49512 129.561 4.49512C121.311 4.49512 114.622 11.1849 114.622 19.4372C114.622 27.6895 121.311 34.3793 129.561 34.3793Z" fill="#FF981F"/>
<path d="M175.302 18.6583C171.348 14.51 166.757 10.7257 161.321 8.72593C159.807 8.16652 158.237 7.77191 156.638 7.54892C156.625 7.54716 156.613 7.54977 156.6 7.54873C156.574 7.54203 156.548 7.53685 156.521 7.53322C154.285 7.24832 152.016 7.38536 149.83 7.93724C148.762 8.20547 147.719 8.56874 146.715 9.0227C145.708 9.51435 144.731 10.0677 143.792 10.6797C141.803 11.8701 139.614 12.687 137.332 13.09C136.187 13.2963 135.026 13.4102 133.863 13.4306C132.853 13.4508 131.901 13.4859 130.944 13.8508C129.922 14.2352 129.004 14.8531 128.263 15.6553C127.523 16.4576 126.98 17.4219 126.678 18.4713C126.654 18.5647 126.661 18.6632 126.698 18.7524C126.734 18.8416 126.798 18.917 126.879 18.9676C127.138 19.153 127.391 19.3633 127.662 19.5285C127.904 19.6392 128.163 19.7097 128.427 19.7371C128.86 19.8283 129.292 19.9169 129.726 20.0028C131.322 20.3192 132.926 20.5993 134.536 20.8431C137.793 21.3363 141.068 21.6837 144.361 21.8854C150.957 22.285 157.576 22.086 164.136 21.2909C167.823 20.8443 171.485 20.2107 175.108 19.3928C175.181 19.3714 175.248 19.3314 175.301 19.2766C175.355 19.2219 175.393 19.1543 175.412 19.0803C175.432 19.0064 175.432 18.9288 175.413 18.8548C175.393 18.7809 175.355 18.7132 175.302 18.6583Z" fill="#E6E6E6"/>
<path d="M130.27 28.6488C128.756 28.0894 127.186 27.6948 125.587 27.4718C125.574 27.47 125.562 27.4726 125.549 27.4716C125.523 27.4649 125.497 27.4597 125.47 27.4561C123.235 27.1712 120.965 27.3082 118.78 27.8601C117.711 28.1283 116.668 28.4916 115.664 28.9456C114.657 29.4372 113.68 29.9906 112.741 30.6025C110.753 31.793 108.563 32.6099 106.281 33.0129C105.136 33.2191 103.976 33.333 102.812 33.3534C101.802 33.3737 100.85 33.4088 99.8932 33.7736C98.8713 34.158 97.9533 34.776 97.2125 35.5782C96.4718 36.3804 95.9287 37.3447 95.6268 38.3941C95.6035 38.4876 95.6105 38.586 95.6468 38.6752C95.6831 38.7644 95.7468 38.8398 95.8287 38.8904C96.0875 39.0758 96.3398 39.2861 96.6117 39.4513C96.8535 39.562 97.1119 39.6325 97.3765 39.6599C97.8088 39.7512 98.2416 39.8397 98.675 39.9256C100.272 40.242 101.875 40.5221 103.485 40.7659C106.742 41.2591 110.017 41.6066 113.31 41.8082C119.906 42.2078 126.525 42.0089 133.086 41.2137C136.773 40.7671 140.435 40.1336 144.057 39.3157C144.131 39.2942 144.197 39.2542 144.251 39.1994C144.304 39.1447 144.342 39.0771 144.362 39.0032C144.381 38.9293 144.381 38.8516 144.362 38.7776C144.343 38.7037 144.304 38.636 144.251 38.5811C140.298 34.4329 135.706 30.6486 130.27 28.6488Z" fill="#E6E6E6"/>
<path d="M238.004 140.04L226.515 124.945L217.45 130.071L236.659 152.886L238.004 140.04Z" fill="#3F3D56"/>
<path d="M264.467 115.501C264.722 121.827 265.702 128.103 267.387 134.206C267.025 135.058 266.652 135.904 266.266 136.745C264.808 139.927 263.175 143.027 261.375 146.03C256.328 154.463 250.027 162.079 242.689 168.616C241.895 169.323 241.09 170.017 240.274 170.7C235.622 164.285 233.111 157.206 232.119 149.922C231.993 148.997 231.89 148.061 231.812 147.131V147.126C231.621 144.866 231.56 142.597 231.629 140.329C231.631 140.148 231.636 139.965 231.644 139.781C231.732 137.358 231.95 134.93 232.28 132.524V132.522C232.317 132.245 232.355 131.969 232.398 131.692C232.518 130.862 232.654 130.033 232.802 129.208C233.665 124.453 234.87 119.766 236.406 115.184V115.182C236.449 115.049 236.492 114.918 236.54 114.787C236.705 114.289 236.874 113.797 237.047 113.304C237.058 113.265 237.071 113.228 237.087 113.191C237.311 112.547 237.54 111.909 237.774 111.275C237.836 111.1 237.902 110.924 237.97 110.748C238.233 110.041 238.502 109.34 238.776 108.649C238.862 108.427 238.95 108.206 239.038 107.988C239.106 107.819 239.171 107.651 239.241 107.485V107.482C239.641 106.494 240.046 105.526 240.455 104.576C241.604 101.907 242.785 99.3956 243.936 97.0804L243.939 97.0779C248.716 87.493 253.059 81.269 253.059 81.269L269.368 86.5479C267.422 89.9992 265.917 95.0895 265.093 101.095C264.457 105.868 264.248 110.688 264.467 115.499L264.467 115.501Z" fill="#3F3D56"/>
<path d="M237.362 113.965C237.266 113.741 237.158 113.523 237.047 113.304C236.474 112.194 235.736 111.177 234.858 110.288C234.728 110.154 234.592 110.021 234.451 109.895C232.937 108.501 231.096 107.51 229.099 107.016C227.101 106.521 225.01 106.538 223.021 107.065L223.011 107.07L222.935 107.09L222.953 107.176C223.028 107.574 223.138 107.965 223.28 108.344C223.317 108.448 223.36 108.546 223.403 108.644C223.421 108.689 223.443 108.729 223.463 108.774C223.463 108.774 223.461 108.777 223.466 108.777C223.466 108.779 223.468 108.782 223.468 108.784C223.516 108.877 223.561 108.973 223.612 109.063C223.508 108.965 223.41 108.865 223.315 108.762C223.222 108.666 223.137 108.566 223.051 108.465C222.758 108.123 222.493 107.759 222.259 107.374L222.219 107.306L222.149 107.334C221.2 107.663 220.296 108.106 219.455 108.654L219.364 108.714C218.722 109.136 217.998 109.418 217.24 109.541C216.482 109.665 215.706 109.628 214.963 109.433C213.792 109.131 212.571 109.076 211.377 109.271C210.184 109.466 209.043 109.907 208.029 110.567C207.358 111.005 206.75 111.534 206.225 112.14C206.18 112.193 206.134 112.248 206.089 112.301C205.994 112.417 205.903 112.535 205.815 112.656C204.87 113.919 204.291 115.417 204.139 116.987L204.134 117.045L204.182 117.077C205.032 117.66 205.994 118.061 207.006 118.254C206.37 118.342 205.726 118.359 205.086 118.301H205.084C204.794 118.277 204.505 118.237 204.219 118.181L204.166 118.171H204.164L204.099 118.158L204.109 118.279C204.184 119.815 204.667 121.303 205.509 122.59L205.534 122.625C205.543 122.638 205.551 122.651 205.559 122.665C205.915 123.211 206.212 123.793 206.444 124.402C207.031 125.916 207.16 127.569 206.815 129.156C206.425 130.853 206.555 132.628 207.188 134.25C207.821 135.873 208.928 137.266 210.364 138.25C211.626 139.119 213.097 139.635 214.624 139.746C214.833 139.764 215.044 139.774 215.255 139.774C216.463 139.777 217.659 139.528 218.766 139.042L218.806 139.027L218.816 138.982C219.029 138.295 219.328 137.638 219.706 137.026C219.582 137.508 219.52 138.004 219.52 138.502V138.668L219.663 138.585C219.786 138.512 219.912 138.434 220.025 138.361C220.704 137.918 221.319 137.383 221.852 136.772C222.061 136.531 222.272 136.297 222.493 136.063L222.496 136.061C222.925 135.603 223.38 135.156 223.853 134.729C224.858 133.826 225.934 133.004 227.07 132.273C228.205 131.544 229.392 130.898 230.621 130.342H230.623C230.762 130.277 230.902 130.214 231.041 130.154C231.653 129.887 232.242 129.571 232.802 129.209C232.823 129.196 232.84 129.186 232.858 129.173C235.287 127.582 237.073 125.18 237.898 122.395C238.723 119.61 238.533 116.623 237.362 113.965L237.362 113.965Z" fill="url(#paint4_linear_1538_20575)"/>
<path opacity="0.15" d="M207.23 132.725C207.161 133.031 207.109 133.34 207.074 133.651C206.606 132.172 206.538 130.595 206.878 129.082C206.93 128.85 206.969 128.616 207 128.38C207.464 129.782 207.544 131.282 207.23 132.725Z" fill="black"/>
<path opacity="0.15" d="M207.421 121.821C206.676 121.924 205.921 121.928 205.175 121.831C204.98 121.463 204.811 121.081 204.671 120.689C205.501 121.249 206.437 121.634 207.421 121.821Z" fill="black"/>
<path opacity="0.15" d="M205.115 118.221C204.84 118.924 204.658 119.659 204.572 120.409C204.343 119.695 204.207 118.954 204.169 118.205L204.163 118.084L204.282 118.107C204.557 118.159 204.836 118.197 205.115 118.221Z" fill="black"/>
<path opacity="0.15" d="M208.094 110.492C209.107 109.832 210.247 109.39 211.44 109.194C212.633 108.999 213.854 109.054 215.024 109.357C215.767 109.553 216.544 109.591 217.302 109.467C218.061 109.344 218.785 109.061 219.427 108.639L219.518 108.579C220.358 108.03 221.263 107.586 222.211 107.256L222.283 107.231L222.323 107.297C222.698 107.917 223.152 108.485 223.674 108.987C223.357 108.396 223.135 107.759 223.016 107.099L222.999 107.012L223.085 106.99C224.951 106.496 226.907 106.45 228.794 106.856C230.681 107.262 232.445 108.109 233.943 109.327C235.441 110.545 236.629 112.1 237.411 113.865C238.194 115.63 238.548 117.555 238.445 119.483C238.049 117.911 237.345 116.434 236.374 115.136C235.403 113.838 234.185 112.746 232.789 111.923C231.393 111.1 229.847 110.562 228.242 110.34C226.637 110.119 225.004 110.218 223.437 110.633L223.351 110.655L223.368 110.742C223.487 111.402 223.709 112.04 224.026 112.63C223.504 112.128 223.05 111.56 222.675 110.94L222.635 110.874L222.563 110.899C221.615 111.229 220.711 111.673 219.87 112.222L219.78 112.282C219.137 112.704 218.413 112.987 217.655 113.11C216.896 113.234 216.12 113.196 215.377 113C213.431 112.495 211.37 112.681 209.546 113.525C207.722 114.37 206.248 115.821 205.374 117.632C204.985 117.445 204.608 117.234 204.245 117.001L204.195 116.97L204.201 116.912C204.326 115.618 204.741 114.369 205.415 113.257C206.089 112.146 207.005 111.201 208.094 110.492Z" fill="black"/>
<path d="M301.528 46.2629L301.289 46.1046L301.115 46.3308C299.773 48.0209 298.706 49.9117 297.951 51.9339C298.055 49.6043 298.463 47.2982 299.163 45.0739L299.238 44.8402L299.022 44.717C296.21 43.1244 293.214 41.8817 290.1 41.0168L289.761 40.9263C287.374 40.2713 285.153 39.1207 283.241 37.5493C281.329 35.9779 279.77 34.0211 278.665 31.8064C276.097 26.7238 272.04 22.5453 267.037 19.8285C262.033 17.1116 256.32 15.9857 250.659 16.6009H250.657C250.597 16.6059 250.534 16.6134 250.473 16.621C250.37 16.631 250.27 16.6436 250.169 16.6562C249.963 16.6838 249.762 16.7115 249.561 16.7416C249.39 16.7668 249.217 16.7944 249.046 16.8246C248.955 16.8372 248.867 16.8523 248.779 16.8698C248.691 16.8849 248.601 16.9 248.513 16.9176H248.511C246.823 17.2369 245.169 17.7123 243.569 18.3379H243.567V18.3404L243.162 18.4987C242.745 18.6697 242.331 18.8507 241.921 19.0417C241.828 19.0844 241.737 19.1297 241.644 19.1724C241.619 19.185 241.592 19.1976 241.566 19.2126C241.303 19.3383 241.041 19.469 240.782 19.6073C240.745 19.6249 240.707 19.645 240.669 19.6651L240.428 19.7933C239.898 20.0799 239.377 20.384 238.865 20.7058C238.822 20.7309 238.782 20.7561 238.739 20.7837C238.694 20.8139 238.646 20.844 238.601 20.8742C238.573 20.8893 238.545 20.9094 238.518 20.927C238.44 20.9748 238.365 21.025 238.289 21.0778C238.138 21.1759 237.988 21.2764 237.839 21.3795C237.686 21.4825 237.535 21.5906 237.384 21.6987L237.234 21.8068L237.261 21.9928C237.286 22.1462 237.309 22.2995 237.337 22.4503C237.362 22.6011 237.387 22.7495 237.415 22.8978C237.457 23.1466 237.505 23.393 237.553 23.6318C237.585 23.7901 237.616 23.946 237.651 24.0993C237.683 24.2577 237.719 24.4161 237.756 24.5744C237.829 24.9012 237.907 25.2179 237.99 25.5296C238.03 25.6855 238.073 25.8413 238.118 25.9947C238.143 26.0877 238.169 26.1807 238.196 26.2712C238.216 26.334 238.236 26.3969 238.256 26.4597C238.262 26.4798 238.267 26.5025 238.274 26.5251C238.28 26.5464 238.286 26.5674 238.294 26.5879C238.322 26.6809 238.349 26.7714 238.377 26.8594C238.392 26.9072 238.407 26.9549 238.425 27.0002C238.46 27.1083 238.498 27.2189 238.535 27.3245C238.576 27.4451 238.618 27.5658 238.661 27.6839C238.671 27.7141 238.681 27.7417 238.691 27.7719C238.699 27.7945 238.706 27.8171 238.716 27.8398C238.726 27.8649 238.737 27.8926 238.747 27.9177C238.789 28.0308 238.832 28.1464 238.877 28.2596C238.892 28.2998 238.907 28.3425 238.925 28.3827C239.332 29.4068 239.833 30.3913 240.42 31.3238C239.769 30.7658 239.143 30.1742 238.54 29.5491C237.61 28.5826 236.754 27.5483 235.977 26.4547C235.914 26.3692 235.851 26.2813 235.794 26.1933C235.675 26.0249 235.56 25.8564 235.447 25.6855C235.326 25.5095 235.21 25.326 235.097 25.145C235.022 25.0244 234.947 24.9012 234.874 24.7806C234.801 24.6649 234.733 24.5518 234.668 24.4362L234.472 24.0993H234.469V24.1018L234.193 24.3733C234.082 24.4814 233.971 24.5895 233.863 24.6976C230.485 28.0969 228.039 32.3084 226.758 36.9269L226.721 37.0652L226.683 37.2084C226.61 37.4648 226.537 37.7137 226.459 37.9676V37.9701C226.384 38.2215 226.303 38.4728 226.218 38.7192C226.14 38.953 226.06 39.1842 225.974 39.4155C225.947 39.4934 225.916 39.5713 225.884 39.6493C225.831 39.8001 225.773 39.9484 225.715 40.0992C225.688 40.1671 225.66 40.2375 225.632 40.3054C225.565 40.4713 225.497 40.6372 225.429 40.8006C225.419 40.8257 225.406 40.8533 225.394 40.8785C225.374 40.9288 225.351 40.979 225.331 41.0268C225.278 41.1475 225.223 41.2706 225.17 41.3913C225.132 41.4692 225.097 41.5497 225.062 41.6276C225.047 41.6628 225.029 41.698 225.014 41.7332C224.921 41.9343 224.826 42.1328 224.725 42.3289C224.612 42.5602 224.496 42.7915 224.373 43.0177C224.265 43.2288 224.152 43.435 224.034 43.6411C223.83 44.0056 223.617 44.3676 223.396 44.7195C223.31 44.8552 223.225 44.991 223.137 45.1267C223.117 45.1594 223.097 45.1921 223.076 45.2222C223.004 45.3404 222.928 45.4535 222.85 45.5691C222.797 45.6471 222.745 45.725 222.692 45.8004C222.604 45.9361 222.511 46.0668 222.415 46.195C222.39 46.2353 222.363 46.273 222.335 46.3107C222.194 46.5068 222.054 46.6978 221.91 46.8888C221.905 46.8913 221.905 46.8939 221.903 46.8964C221.898 46.8964 221.898 46.8989 221.895 46.9014C221.832 46.9844 221.77 47.0673 221.704 47.1477C221.619 47.2659 221.526 47.3815 221.433 47.4946C221.282 47.6857 221.124 47.8792 220.963 48.0678C220.958 48.0728 220.955 48.0778 220.95 48.0803C220.118 49.0589 219.215 49.9763 218.251 50.8253C218.233 50.8404 218.221 50.8555 218.203 50.8681C218.068 50.9862 217.932 51.1044 217.791 51.22C217.733 51.2678 217.675 51.3155 217.618 51.3633C217.522 51.4437 217.424 51.5242 217.329 51.5971C217.317 51.6086 217.305 51.6187 217.291 51.6272C217.206 51.6976 217.123 51.763 217.037 51.8283C216.934 51.9113 216.831 51.9892 216.725 52.0671C216.228 52.4442 215.717 52.8003 215.192 53.1355C215.114 53.1882 215.032 53.241 214.951 53.2913C214.903 53.3215 214.856 53.3516 214.81 53.3768C214.619 53.4949 214.428 53.6106 214.237 53.7212C214.046 53.8343 213.85 53.9424 213.657 54.0479C213.242 54.2742 212.832 54.5105 212.433 54.7568C212.232 54.8825 212.031 55.0082 211.832 55.1364C211.043 55.6492 210.283 56.198 209.553 56.7829C208.822 57.3681 208.122 57.9898 207.454 58.6456C207.371 58.726 207.288 58.809 207.205 58.8944C207.039 59.0578 206.879 59.2237 206.725 59.3896C206.479 59.6435 206.243 59.9049 206.009 60.1689C204.776 61.5676 203.685 63.0849 202.752 64.6986C202.283 65.5044 201.857 66.3342 201.475 67.1847C201.186 67.8207 200.922 68.4718 200.683 69.1303C200.525 69.5702 200.377 70.0143 200.239 70.4626C200.171 70.6863 200.105 70.9126 200.043 71.1388C199.829 71.9055 199.65 72.6797 199.505 73.4565C199.387 74.0799 199.291 74.7041 199.218 75.3292C199.18 75.6434 199.15 75.9576 199.123 76.2693C199.058 77.0355 199.025 77.8023 199.023 78.57C199.019 80.8728 199.299 83.1674 199.857 85.4017C199.98 85.8944 200.116 86.3846 200.266 86.8723C200.342 87.1161 200.422 87.3574 200.502 87.5987C200.706 88.202 200.931 88.7995 201.178 89.391C201.327 89.7455 201.483 90.0974 201.646 90.4468C202.684 92.6681 204.009 94.7437 205.587 96.6205C205.846 96.9297 206.113 97.2339 206.388 97.533C206.391 97.533 206.388 97.5355 206.388 97.5355C207.072 98.2816 207.796 98.9898 208.557 99.6571H208.56C208.864 99.9261 209.173 100.187 209.487 100.439C209.49 100.436 209.49 100.439 209.49 100.439C209.806 100.695 210.126 100.942 210.452 101.18C210.616 101.299 210.782 101.417 210.95 101.535C211.279 101.769 211.615 101.994 211.958 102.211H211.96C212.302 102.432 212.649 102.643 213.001 102.845C213.707 103.249 214.431 103.629 215.175 103.973L215.3 104.031L215.429 103.973C216.621 103.436 217.851 102.985 219.108 102.623C219.384 102.543 219.663 102.47 219.94 102.4C220.639 102.226 221.342 102.08 222.051 101.962C221.361 102.309 220.694 102.701 220.056 103.136C219.56 103.47 219.073 103.835 218.583 104.237C218.419 104.37 218.256 104.509 218.093 104.649L217.686 105.001L218.196 105.17C218.382 105.23 218.568 105.29 218.754 105.346C219.007 105.426 219.259 105.499 219.505 105.567C220.043 105.718 220.584 105.851 221.129 105.967C221.262 105.994 221.393 106.022 221.526 106.05C221.785 106.1 222.046 106.15 222.307 106.195C222.318 106.198 222.329 106.2 222.34 106.2C222.612 106.246 222.885 106.288 223.157 106.326C223.662 106.399 224.167 106.457 224.672 106.499C224.728 106.507 224.783 106.51 224.841 106.512C224.964 106.522 225.085 106.532 225.208 106.54C225.479 106.557 225.753 106.57 226.027 106.58C226.047 106.58 226.065 106.582 226.085 106.582C226.223 106.587 226.361 106.592 226.5 106.595C226.5 106.595 226.5 106.598 226.502 106.595C226.64 106.598 226.778 106.6 226.917 106.6H227.681C227.824 106.6 227.967 106.603 228.113 106.603C228.314 106.603 228.518 106.605 228.719 106.608C228.772 106.608 228.827 106.61 228.882 106.61C229.204 106.615 229.525 106.623 229.847 106.63C229.867 106.63 229.887 106.633 229.907 106.633C230.229 106.643 230.551 106.653 230.873 106.668C230.943 106.67 231.013 106.673 231.086 106.678C231.395 106.691 231.704 106.706 232.014 106.723C232.102 106.728 232.192 106.736 232.283 106.741C232.516 106.753 232.752 106.768 232.986 106.786C233.124 106.794 233.26 106.804 233.398 106.816C233.956 106.859 234.512 106.907 235.07 106.962C235.256 106.977 235.442 106.997 235.628 107.017C236.125 107.07 236.625 107.128 237.126 107.191C237.349 107.216 237.573 107.246 237.797 107.276C237.822 107.279 237.847 107.281 237.872 107.286C238.148 107.324 238.422 107.362 238.699 107.402C238.88 107.427 239.061 107.455 239.242 107.482C239.428 107.51 239.614 107.538 239.8 107.57C239.9 107.585 240.001 107.603 240.104 107.621C240.345 107.658 240.589 107.699 240.833 107.744C240.855 107.746 240.876 107.749 240.898 107.754C241.416 107.844 241.936 107.94 242.454 108.043C242.758 108.101 243.059 108.161 243.361 108.224C243.597 108.272 243.833 108.322 244.07 108.372C244.11 108.38 244.15 108.39 244.19 108.4C244.199 108.403 244.209 108.404 244.218 108.405C244.575 108.483 244.934 108.563 245.291 108.649C246.53 108.935 247.768 109.254 249.003 109.604C249.287 109.682 249.571 109.765 249.855 109.848C249.976 109.883 250.094 109.918 250.212 109.953C250.458 110.026 250.702 110.099 250.948 110.177C251.165 110.242 251.383 110.31 251.599 110.381C251.735 110.423 251.871 110.466 252.007 110.511C252.218 110.577 252.429 110.645 252.637 110.718C252.816 110.773 252.992 110.831 253.168 110.893C253.419 110.976 253.673 111.062 253.924 111.152C253.997 111.178 254.072 111.203 254.145 111.23C254.452 111.336 254.759 111.444 255.065 111.557C255.364 111.665 255.663 111.776 255.96 111.886C256.166 111.964 256.372 112.04 256.576 112.12C256.804 112.208 257.033 112.296 257.259 112.387C257.586 112.515 257.915 112.646 258.242 112.779C258.543 112.899 258.843 113.023 259.144 113.151C259.199 113.173 259.257 113.196 259.313 113.221C259.574 113.329 259.835 113.442 260.094 113.556C260.263 113.626 260.428 113.699 260.594 113.772C261.318 114.088 262.041 114.416 262.763 114.755H262.766C263.218 114.968 263.678 115.172 264.141 115.365C264.249 115.411 264.357 115.456 264.467 115.499C264.651 115.577 264.837 115.649 265.023 115.725C265.143 115.773 265.264 115.82 265.387 115.866C265.566 115.936 265.746 116.004 265.927 116.069C266.118 116.14 266.307 116.21 266.5 116.275C266.568 116.301 266.636 116.323 266.707 116.348C266.93 116.424 267.154 116.499 267.38 116.572C267.403 116.58 267.425 116.587 267.45 116.595C267.687 116.67 267.923 116.745 268.162 116.816C268.181 116.823 268.2 116.829 268.22 116.833C268.476 116.911 268.737 116.987 268.996 117.06C269.378 117.165 269.763 117.266 270.147 117.359C270.218 117.376 270.288 117.394 270.358 117.409C270.564 117.459 270.768 117.507 270.974 117.552C271.193 117.603 271.414 117.648 271.633 117.693C271.854 117.738 272.075 117.784 272.294 117.824C272.412 117.846 272.53 117.869 272.645 117.889L272.954 117.942C273.168 117.98 273.382 118.012 273.598 118.048C273.604 118.047 273.61 118.048 273.615 118.05C273.859 118.088 274.101 118.123 274.344 118.153C274.578 118.186 274.812 118.214 275.046 118.241C275.093 118.246 275.144 118.251 275.194 118.256C275.387 118.279 275.581 118.301 275.774 118.319C275.83 118.324 275.885 118.329 275.94 118.334C276.131 118.352 276.322 118.369 276.513 118.382C276.552 118.387 276.59 118.389 276.629 118.389C276.8 118.405 276.971 118.417 277.142 118.425C277.262 118.435 277.38 118.44 277.501 118.447C277.564 118.45 277.624 118.452 277.687 118.455C277.853 118.465 278.019 118.47 278.187 118.475C278.391 118.482 278.594 118.488 278.795 118.493C279.039 118.498 279.285 118.5 279.529 118.5H279.534C279.773 118.5 280.014 118.498 280.253 118.493H280.343L280.607 118.485C280.743 118.482 280.879 118.477 281.012 118.472C281.268 118.462 281.522 118.45 281.776 118.435C281.877 118.43 281.98 118.422 282.08 118.417C282.125 118.415 282.173 118.41 282.218 118.407C282.377 118.397 282.533 118.387 282.691 118.374C282.854 118.362 283.02 118.347 283.183 118.329C283.395 118.309 283.606 118.286 283.817 118.264C283.983 118.246 284.149 118.226 284.312 118.206C284.334 118.204 284.356 118.201 284.377 118.196C284.536 118.178 284.694 118.158 284.85 118.136C285.036 118.11 285.219 118.083 285.403 118.055C285.423 118.053 285.44 118.05 285.46 118.048C285.777 117.997 286.096 117.947 286.416 117.889C286.75 117.829 287.084 117.764 287.416 117.696C287.539 117.671 287.66 117.643 287.783 117.618C287.851 117.603 287.921 117.59 287.986 117.575C288.089 117.552 288.19 117.53 288.29 117.505C288.308 117.502 288.328 117.497 288.346 117.495C288.486 117.464 288.625 117.429 288.765 117.394C289.047 117.326 289.323 117.256 289.6 117.18C289.723 117.15 289.846 117.118 289.964 117.085C289.999 117.075 290.035 117.065 290.067 117.055C290.577 116.911 291.083 116.76 291.585 116.6C291.806 116.529 292.025 116.456 292.244 116.378C292.714 116.218 293.18 116.048 293.641 115.871C293.764 115.825 293.887 115.775 294.011 115.727C294.192 115.655 294.372 115.582 294.551 115.509C294.712 115.441 294.873 115.373 295.036 115.303C295.116 115.27 295.197 115.235 295.277 115.2C295.519 115.094 295.76 114.986 295.999 114.878C296.159 114.802 296.318 114.729 296.476 114.654C296.727 114.533 296.976 114.41 297.225 114.287C297.288 114.254 297.348 114.222 297.409 114.192C297.567 114.111 297.725 114.028 297.886 113.948C298.14 113.812 298.394 113.676 298.645 113.535C298.73 113.49 298.813 113.442 298.899 113.395C299.175 113.239 299.449 113.08 299.721 112.92C300.321 112.56 300.914 112.185 301.498 111.793C301.643 111.698 301.789 111.597 301.932 111.499C302.204 111.313 302.47 111.122 302.737 110.931C302.764 110.911 302.789 110.891 302.817 110.873C302.95 110.775 303.083 110.677 303.217 110.577C303.493 110.368 303.767 110.157 304.041 109.941C304.046 109.938 304.054 109.931 304.061 109.926C304.184 109.828 304.307 109.73 304.428 109.632C304.802 109.327 305.172 109.018 305.534 108.699C305.712 108.546 305.888 108.387 306.062 108.229C306.192 108.111 306.323 107.993 306.451 107.872C306.71 107.628 306.964 107.387 307.215 107.141C307.341 107.02 307.464 106.894 307.59 106.768C307.713 106.643 307.838 106.517 307.962 106.389C308.004 106.346 308.047 106.301 308.09 106.256C308.215 106.122 308.341 105.987 308.467 105.853C308.575 105.738 308.68 105.617 308.788 105.497C308.969 105.295 309.153 105.094 309.331 104.891C309.341 104.879 309.351 104.868 309.362 104.858C309.372 104.845 309.382 104.835 309.389 104.825H309.387C313.04 100.6 315.754 95.6472 317.35 90.2942C318.946 84.9411 319.387 79.3102 318.644 73.7739C317.901 68.2376 315.991 62.9222 313.04 58.1796C310.09 53.4369 306.165 49.3751 301.528 46.263L301.528 46.2629Z" fill="url(#paint5_linear_1538_20575)"/>
<g opacity="0.15">
<path opacity="0.15" d="M250.658 16.5986C251.159 18.3986 251.913 20.1183 252.897 21.7065C251.25 20.2912 249.778 18.6836 248.513 16.918C249.223 16.7836 249.938 16.6772 250.658 16.5986Z" fill="black"/>
<path opacity="0.15" d="M226.134 44.435C224.273 45.4504 222.534 46.6732 220.949 48.08C223.626 44.9146 225.582 41.205 226.682 37.2082C226.695 37.1602 226.708 37.1119 226.721 37.0638L226.759 36.9278C228.081 32.1576 230.646 27.8242 234.191 24.3708L234.47 24.0991L234.667 24.4348C235.754 26.2834 237.054 27.9975 238.542 29.5419C236.263 35.9755 231.827 41.3301 226.134 44.435Z" fill="black"/>
<path opacity="0.15" d="M239.235 27.3126L239.198 27.4487C239.185 27.4968 239.171 27.5451 239.158 27.5931C239.084 27.8576 239.006 28.1202 238.926 28.3816C238.131 26.3219 237.573 24.1785 237.262 21.9926L237.232 21.8071L237.385 21.6981C239.297 20.3237 241.374 19.1943 243.568 18.3364C241.599 21.0453 240.131 24.0855 239.235 27.3126Z" fill="black"/>
<path opacity="0.15" d="M213.658 54.05C215.304 53.1488 216.845 52.067 218.251 50.8247C215.441 54.0972 213.427 57.9762 212.366 62.1576C211.305 66.3391 211.227 70.7094 212.137 74.9261C213.048 79.1429 214.922 83.0915 217.613 86.4626C220.305 89.8337 223.74 92.5356 227.65 94.3568L227.777 94.4155L227.904 94.3582C230.016 93.4039 232.242 92.7276 234.528 92.3462C233.101 93.0731 231.771 93.9762 230.569 95.0342L230.163 95.3859L230.673 95.5543C231.113 95.6999 231.554 95.8339 231.982 95.9528C234.497 96.6535 237.097 97.0015 239.708 96.9868C251.571 96.9108 263.526 99.6539 275.241 105.14C277.25 106.079 279.334 106.85 281.471 107.443C290.784 110.036 300.726 109.103 309.394 104.823C304.507 110.476 298.117 114.626 290.966 116.792C283.815 118.957 276.196 119.05 268.995 117.058C266.858 116.465 264.774 115.694 262.765 114.755C251.05 109.269 239.095 106.526 227.232 106.602C224.621 106.617 222.021 106.269 219.506 105.568C219.078 105.449 218.637 105.315 218.197 105.169L217.687 105.001L218.093 104.649C219.295 103.591 220.625 102.688 222.052 101.961C219.766 102.343 217.539 103.019 215.428 103.973L215.301 104.03L215.174 103.972C210.478 101.786 206.483 98.3381 203.632 94.013C200.782 89.688 199.19 84.6559 199.032 79.4782C198.875 74.3006 200.159 69.1811 202.742 64.691C205.325 60.2009 209.104 56.5168 213.658 54.05L213.658 54.05Z" fill="black"/>
</g>
</g>
<defs>
<linearGradient id="paint0_linear_1538_20575" x1="186.08" y1="116.941" x2="146.191" y2="98.7787" gradientUnits="userSpaceOnUse">
<stop stop-color="#023E5E"/>
<stop offset="1" stop-color="#557E93"/>
</linearGradient>
<linearGradient id="paint1_linear_1538_20575" x1="166.194" y1="141.973" x2="136.795" y2="136.904" gradientUnits="userSpaceOnUse">
<stop stop-color="#023E5E"/>
<stop offset="1" stop-color="#557E93"/>
</linearGradient>
<linearGradient id="paint2_linear_1538_20575" x1="166.596" y1="137.664" x2="162.378" y2="136.645" gradientUnits="userSpaceOnUse">
<stop stop-color="#023E5E"/>
<stop offset="1" stop-color="#557E93"/>
</linearGradient>
<linearGradient id="paint3_linear_1538_20575" x1="172.087" y1="139.224" x2="134.398" y2="128.717" gradientUnits="userSpaceOnUse">
<stop stop-color="#023E5E"/>
<stop offset="1" stop-color="#557E93"/>
</linearGradient>
<linearGradient id="paint4_linear_1538_20575" x1="238.403" y1="139.774" x2="197.814" y2="127.583" gradientUnits="userSpaceOnUse">
<stop stop-color="#F0C75E"/>
<stop offset="1" stop-color="#F5D993"/>
</linearGradient>
<linearGradient id="paint5_linear_1538_20575" x1="318.994" y1="118.5" x2="180.344" y2="71.246" gradientUnits="userSpaceOnUse">
<stop stop-color="#F0C75E"/>
<stop offset="1" stop-color="#F5D993"/>
</linearGradient>
<clipPath id="clip0_1538_20575">
<rect width="237" height="200" fill="white" transform="translate(82)"/>
</clipPath>
</defs>
</svg>
